<?xml version="1.0" encoding="utf-8"?>
<!-- Generator: Adobe Illustrator 26.2.1, SVG Export Plug-In . SVG Version: 6.00 Build 0)  -->
<svg version="1.1" id="Layer_1" xmlns="http://www.w3.org/2000/svg" xmlns:xlink="http://www.w3.org/1999/xlink" x="0px" y="0px"
	 viewBox="0 0 292.28 51.36" style="enable-background:new 0 0 292.28 51.36;" xml:space="preserve">
<style type="text/css">
	.st0{fill:#0B3030;}
	.st1{fill:#CD4A16;}
</style>
<g>
	<g>
		<g>
			<path class="st0" d="M78.62,44.31c5.3,0,6.66-4.07,6.66-6.34c0-3.88-4.2-6.79-6.98-8.67c-7.05-4.98-12.22-8.6-12.22-15.39
				c0-8.99,8.92-13.39,16.94-13.39c4.4,0,7.57,0.45,11.06,1.81l0.52,8.92l-0.19-0.19c-2.72-2.52-6.47-5.95-11.06-5.95
				c-5.3,0-6.66,4.53-6.66,6.6c0,3.75,4.98,6.4,7.76,8.28c7.7,5.11,12.03,7.95,12.03,15.07c0,10.28-9.05,14.49-17.85,14.49
				c-3.62,0-7.82-0.65-10.73-1.94c0-3.04-0.13-6.14-0.13-9.18C71.05,41.14,73.9,44.31,78.62,44.31z"/>
		</g>
	</g>
	<g>
		<g>
			<path class="st0" d="M14.23,29.56h-1.75v13.06c0,2,0.32,4.14,1.42,6.21H0.13c1.23-2.07,1.42-4.4,1.42-6.21V7.25
				c0-1.42-0.52-4.01-1.55-6.01h17.33c7.37,0,15.91,4.07,15.91,12.09c0,4.85-3.17,10.99-8.34,12.74l-1.16,0.39l2,3.88
				c3.1,5.88,8.6,13.77,12.48,18.49H28.07C22.5,42.69,18.88,36.94,15,30.73L14.23,29.56z M12.03,5.83v19.85h0.45
				c6.4,0,9.51-4.85,9.51-9.51c0-5.24-2-10.35-8.15-10.35H12.03z"/>
		</g>
	</g>
	<g>
		<g>
			<path class="st0" d="M128.66,12.49h-0.75v5.62c0,0.86,0.14,1.78,0.61,2.67h-5.92c0.53-0.89,0.61-1.89,0.61-2.67V2.89
				c0-0.61-0.22-1.72-0.67-2.59h7.46c3.17,0,6.84,1.75,6.84,5.2c0,2.09-1.36,4.73-3.59,5.48l-0.5,0.17l0.86,1.67
				c1.33,2.53,3.7,5.92,5.37,7.96h-4.37c-2.39-2.64-3.95-5.12-5.62-7.79L128.66,12.49z M127.71,2.28v8.54h0.19
				c2.75,0,4.09-2.09,4.09-4.09c0-2.25-0.86-4.45-3.5-4.45H127.71z"/>
			<path class="st0" d="M149.22,0c6.18,0,9.76,4.9,9.76,10.65c0,5.95-3.84,10.43-9.74,10.43c-6.01,0-10.12-4.7-10.12-10.57
				C139.12,4.62,143.21,0,149.22,0z M154.51,13.38c0-3.84-2.62-11.4-7.34-11.4c-2.64,0-3.25,4.01-3.25,6.01
				c0,4.34,2.86,11.04,6.93,11.04C153.73,19.03,154.51,15.63,154.51,13.38z"/>
			<path class="st0" d="M184,24.54c-4.4,0-6.93-1.28-9.46-3.59l-0.39-0.39l-0.64,0.22c-0.7,0.22-1.89,0.31-2.7,0.31
				c-6.2,0-9.88-4.65-9.88-10.6S164.58,0,170.78,0c6.23,0,10.13,4.62,10.13,10.65c0,2.56-0.67,5.26-2.73,7.43l-0.11,0.14v0.17
				c0.31,3.23,5.09,5.2,7.96,5.62C185.44,24.31,184.72,24.54,184,24.54z M173.45,18.86c2.53,0,2.98-3.78,2.98-5.54
				c0-4.42-2.73-11.18-7.71-11.18c-2.81,0-3.28,3.81-3.28,5.98c0,4.31,2.87,9.01,6.7,10.46C172.51,18.72,172.95,18.86,173.45,18.86z
				"/>
			<path class="st0" d="M189.15,0.31c-0.28,0.86-0.39,1.97-0.39,2.56v12.68c0,1.59,0.83,3.23,2.67,3.23s3.03-1.64,3.03-3.23V2.87
				c0-0.58-0.11-1.7-0.45-2.56h5.81c-0.42,0.83-0.67,1.7-0.67,2.59v11.07c0,5.09-4.06,7.12-7.79,7.12c-3.7,0-7.34-2.03-7.34-7.12
				V2.89c0-0.83-0.14-1.75-0.64-2.59H189.15z"/>
			<path class="st0" d="M213.35,20.78h-10.6c0.56-0.89,0.67-1.81,0.67-2.7V2.92c0-0.86-0.2-1.78-0.67-2.61h11.07l-1.45,3.39
				c-0.97-0.33-2.25-0.5-3.48-0.5h-0.78v5.98h4.9l-1.59,2.84c-0.75-0.33-1.95-0.45-3.31-0.45v6.26h0.78c2.03,0,4.01-0.08,5.98-0.5
				L213.35,20.78z"/>
			<path class="st0" d="M217.69,2.73c0-0.7-0.14-1.61-0.56-2.42h3.95c0.11,0.44,0.33,0.86,0.61,1.28c1.61,2.28,3.28,4.53,4.92,6.79
				l0.72,1l5.45-7.43c0.36-0.5,0.64-1.06,0.75-1.64h4.09c-0.45,0.81-0.58,1.84-0.58,2.45v15.36c0,0.86,0.17,1.81,0.67,2.67h-5.51
				c0.53-0.89,0.56-1.78,0.56-2.7V7.04l-5.37,7.23l-5.42-7.34v11.1c0,0.92,0.22,1.86,0.7,2.75h-5.56c0.58-0.92,0.58-1.89,0.58-2.75
				V2.73z"/>
			<path class="st0" d="M250.47,0c6.17,0,9.76,4.9,9.76,10.65c0,5.95-3.84,10.43-9.74,10.43c-6.01,0-10.12-4.7-10.12-10.57
				C240.37,4.62,244.46,0,250.47,0z M255.75,13.38c0-3.84-2.62-11.4-7.34-11.4c-2.64,0-3.25,4.01-3.25,6.01
				c0,4.34,2.87,11.04,6.93,11.04C254.97,19.03,255.75,15.63,255.75,13.38z"/>
			<path class="st0" d="M269,12.49h-0.75v5.62c0,0.86,0.14,1.78,0.61,2.67h-5.92c0.53-0.89,0.61-1.89,0.61-2.67V2.89
				c0-0.61-0.22-1.72-0.67-2.59h7.46c3.17,0,6.84,1.75,6.84,5.2c0,2.09-1.36,4.73-3.59,5.48l-0.5,0.17l0.86,1.67
				c1.33,2.53,3.7,5.92,5.37,7.96h-4.37c-2.39-2.64-3.95-5.12-5.62-7.79L269,12.49z M268.05,2.28v8.54h0.2
				c2.75,0,4.09-2.09,4.09-4.09c0-2.25-0.86-4.45-3.5-4.45H268.05z"/>
			<path class="st0" d="M290.75,20.78h-10.6c0.56-0.89,0.67-1.81,0.67-2.7V2.92c0-0.86-0.2-1.78-0.67-2.61h11.07l-1.45,3.39
				c-0.97-0.33-2.25-0.5-3.48-0.5h-0.78v5.98h4.9l-1.59,2.84c-0.75-0.33-1.95-0.45-3.31-0.45v6.26h0.78c2.03,0,4.01-0.08,5.98-0.5
				L290.75,20.78z"/>
		</g>
	</g>
	<g>
		<g>
			<path class="st0" d="M127.27,45.92c2.23,0,2.8-1.71,2.8-2.67c0-1.63-1.77-2.85-2.94-3.64c-2.96-2.09-5.14-3.62-5.14-6.47
				c0-3.78,3.75-5.63,7.12-5.63c1.85,0,3.18,0.19,4.65,0.76l0.22,3.75l-0.08-0.08c-1.14-1.06-2.72-2.5-4.65-2.5
				c-2.23,0-2.8,1.9-2.8,2.77c0,1.58,2.09,2.69,3.26,3.48c3.24,2.15,5.06,3.34,5.06,6.34c0,4.32-3.81,6.09-7.5,6.09
				c-1.52,0-3.29-0.27-4.51-0.82c0-1.28-0.05-2.58-0.05-3.86C124.09,44.59,125.28,45.92,127.27,45.92z"/>
			<path class="st0" d="M142.98,38.82v6.36c0,0.92,0.22,1.79,0.68,2.64h-5.9c0.49-0.87,0.63-1.79,0.63-2.64V30.34
				c0-0.82-0.14-1.71-0.63-2.53h5.87c-0.38,0.82-0.65,1.77-0.65,2.53v6.61c0.76-0.16,1.98-0.82,2.75-2.12
				c0.9-1.6,2.91-4.6,2.91-6.42c0-0.16-0.03-0.38-0.05-0.6h6.31c-0.6,0.44-1.03,0.9-1.47,1.6l-4.51,7.37l4.3,8.65
				c0.54,1.09,0.9,1.69,1.74,2.39h-6.23c0.03-0.22,0.05-0.46,0.05-0.62c0-1.2-1.55-4.05-2.42-5.85
				C145.3,39.2,145.08,38.82,142.98,38.82z"/>
			<path class="st0" d="M156.55,30.34c0-0.79-0.14-1.71-0.65-2.53h5.76c-0.62,0.82-0.73,1.82-0.73,2.56v14.85
				c0,0.84,0.16,1.77,0.65,2.61h-5.68c0.49-0.84,0.65-1.77,0.65-2.61V30.34z"/>
			<path class="st0" d="M175.29,47.82h-10.36c0.54-0.87,0.65-1.77,0.65-2.64V30.37c0-0.84-0.19-1.74-0.65-2.56h10.82l-1.41,3.32
				c-0.95-0.33-2.2-0.49-3.4-0.49h-0.76v5.85h4.79l-1.55,2.77c-0.73-0.33-1.9-0.43-3.24-0.43v6.12h0.76c1.99,0,3.92-0.08,5.85-0.49
				L175.29,47.82z"/>
			<path class="st0" d="M184.94,39.72h-0.73v5.49c0,0.84,0.14,1.74,0.6,2.61h-5.79c0.52-0.87,0.6-1.85,0.6-2.61V30.34
				c0-0.6-0.22-1.69-0.65-2.53h7.29c3.1,0,6.69,1.71,6.69,5.08c0,2.04-1.33,4.62-3.51,5.36l-0.49,0.16l0.84,1.63
				c1.31,2.47,3.62,5.79,5.25,7.78h-4.27c-2.34-2.58-3.86-5-5.49-7.61L184.94,39.72z M184.01,29.74v8.35h0.19c2.69,0,4-2.04,4-4
				c0-2.2-0.84-4.35-3.43-4.35H184.01z"/>
			<path class="st0" d="M200.84,45.92c2.23,0,2.8-1.71,2.8-2.67c0-1.63-1.77-2.85-2.94-3.64c-2.96-2.09-5.14-3.62-5.14-6.47
				c0-3.78,3.75-5.63,7.12-5.63c1.85,0,3.18,0.19,4.65,0.76l0.22,3.75l-0.08-0.08c-1.14-1.06-2.72-2.5-4.65-2.5
				c-2.23,0-2.8,1.9-2.8,2.77c0,1.58,2.09,2.69,3.26,3.48c3.24,2.15,5.06,3.34,5.06,6.34c0,4.32-3.81,6.09-7.5,6.09
				c-1.52,0-3.29-0.27-4.51-0.82c0-1.28-0.05-2.58-0.05-3.86C197.66,44.59,198.86,45.92,200.84,45.92z"/>
			<path class="st0" d="M216.56,38.82v6.36c0,0.92,0.22,1.79,0.68,2.64h-5.9c0.49-0.87,0.62-1.79,0.62-2.64V30.34
				c0-0.82-0.14-1.71-0.62-2.53h5.87c-0.38,0.82-0.65,1.77-0.65,2.53v6.61c0.76-0.16,1.98-0.82,2.75-2.12
				c0.9-1.6,2.91-4.6,2.91-6.42c0-0.16-0.03-0.38-0.05-0.6h6.31c-0.6,0.44-1.03,0.9-1.47,1.6l-4.51,7.37l4.3,8.65
				c0.54,1.09,0.9,1.69,1.74,2.39h-6.23c0.03-0.22,0.05-0.46,0.05-0.62c0-1.2-1.55-4.05-2.42-5.85
				C218.87,39.2,218.65,38.82,216.56,38.82z"/>
			<path class="st0" d="M230.13,30.34c0-0.79-0.14-1.71-0.65-2.53h5.76c-0.63,0.82-0.73,1.82-0.73,2.56v14.85
				c0,0.84,0.16,1.77,0.65,2.61h-5.68c0.49-0.84,0.65-1.77,0.65-2.61V30.34z"/>
			<path class="st0" d="M240.98,44.89c0,2.15-0.84,4.41-1.79,6.47h-1.63c0.38-1.33,0.46-2.67,0.46-4c0-0.84-0.03-1.66-0.03-2.47
				H240.98z"/>
		</g>
	</g>
	<path class="st1" d="M34.98,24.63c2.42,0,4.83,0,7.28,0c0-3.56,0-7.09,0-10.63c2.11,0,4.18,0,6.29,0c0,0.11,0.01,0.22,0.01,0.33
		c0,1.27,0.04,2.55-0.02,3.82c-0.03,0.56,0.26,0.84,0.66,1c0.97,0.38,1.93,0.83,3.01,0.8c0.1,0,0.19,0.05,0.29,0.08
		c0.19,0.06,0.37,0.11,0.56,0.17c0.19,0.06,0.38,0.13,0.58,0.2c0.11,0.04,0.21,0.11,0.31,0.11c0.19,0,0.27,0.07,0.34,0.24
		c0.08,0.22,0.26,0.24,0.44,0.08c0.02-0.02,0.04-0.04,0.07-0.07c0.45-0.48,0.47-0.49,1.05-0.19c0.26,0.13,0.5,0.19,0.75,0
		c0.07-0.05,0.17-0.07,0.26-0.08c0.43-0.07,0.85-0.15,1.28-0.19c0.15-0.02,0.34,0.01,0.46,0.09c0.49,0.32,1.03,0.5,1.61,0.51
		c0.33,0.01,0.44,0.16,0.46,0.44c0.08,0.85,0.17,1.71,0.24,2.56c0.02,0.19,0.01,0.37,0.02,0.56c0.01,0.2,0.01,0.39,0.24,0.49
		c0.07,0.03,0.15,0.14,0.16,0.22c0.06,0.62,0.49,1.08,0.71,1.62c0.19,0.46,0.24,0.88-0.02,1.3c-0.2,0.32-0.28,0.66-0.23,1.04
		c0.09,0.69-0.19,1.18-0.81,1.49c-0.18,0.09-0.33,0.21-0.52,0.28c-0.63,0.23-1.1,0.66-1.59,1.11c-0.56,0.52-1.27,0.82-2.04,0.88
		c-0.43,0.04-0.71,0.18-0.88,0.6c-0.06,0.16-0.25,0.3-0.42,0.37c-0.28,0.13-0.43,0.33-0.6,0.57c-0.54,0.74-0.79,1.55-0.9,2.46
		c-0.06,0.47-0.13,0.9,0.07,1.35c0.17,0.4,0.32,0.8,0.45,1.22c0.04,0.13,0.01,0.28,0.01,0.49c-0.17-0.07-0.3-0.11-0.4-0.17
		c-0.37-0.23-0.76-0.35-1.2-0.37c-0.16-0.01-0.35-0.03-0.47-0.12c-0.31-0.25-0.67-0.35-1.05-0.43c-0.76-0.16-1.21-0.66-1.43-1.38
		c-0.03-0.1,0-0.23,0.04-0.33c0.18-0.36,0.07-0.66-0.18-0.94c-0.13-0.14-0.29-0.27-0.41-0.42c-0.26-0.33-0.51-0.67-0.77-1
		c-0.15-0.19-0.32-0.38-0.46-0.58c-0.23-0.34-0.51-0.67-0.63-1.05c-0.24-0.73-0.6-1.35-1.17-1.87c-0.21-0.2-0.34-0.48-0.54-0.71
		c-0.08-0.1-0.22-0.18-0.35-0.21c-0.41-0.13-0.83-0.21-1.24-0.35c-0.38-0.12-1.08,0.14-1.27,0.48c-0.15,0.29-0.33,0.57-0.49,0.86
		c-0.09,0.16-0.16,0.33-0.22,0.51c-0.11,0.37-0.2,0.42-0.55,0.26c-0.23-0.1-0.44-0.23-0.67-0.33c-0.37-0.17-0.74-0.31-1.1-0.49
		c-0.63-0.3-1.11-0.74-1.16-1.49c-0.03-0.51-0.14-0.98-0.5-1.36c-0.05-0.06-0.1-0.14-0.11-0.22c-0.05-0.44-0.38-0.61-0.71-0.82
		c-0.35-0.22-0.64-0.54-0.95-0.83c-0.25-0.23-0.49-0.47-0.72-0.72c-0.34-0.38-0.66-0.77-0.98-1.16
		C34.93,24.69,34.95,24.66,34.98,24.63z"/>
	<g>
		<g>
			<path class="st0" d="M250.6,47.92c0.42-0.64,0.44-1.28,0.44-1.93V35.03c0-0.6-0.1-1.28-0.46-1.89h4.71
				c3.77,0,5.34,1.75,5.34,4.03c0,2.95-2.63,4.88-5.22,4.88h-0.98v3.93c0,0.62,0.06,1.28,0.42,1.93H250.6z M254.3,34.55v6.44h0.58
				c1.69,0,2.49-1.79,2.49-3.35c0-1.71-0.44-3.09-2.49-3.09H254.3z"/>
			<path class="st0" d="M262.2,35.01c0-0.6-0.1-1.26-0.46-1.87h4.19c-0.32,0.56-0.36,1.22-0.36,1.87v10.81h0.84
				c1.45,0,2.65-0.14,3.77-0.58l-0.8,2.67h-7.62c0.4-0.66,0.44-1.36,0.44-1.99V35.01z"/>
			<path class="st0" d="M271.56,35.01c0-0.6-0.1-1.26-0.46-1.87h4.19c-0.32,0.56-0.36,1.22-0.36,1.87v10.81h0.84
				c1.45,0,2.65-0.14,3.77-0.58l-0.8,2.67h-7.62c0.4-0.66,0.44-1.36,0.44-1.99V35.01z"/>
			<path class="st0" d="M291.28,35.48c-0.48-0.5-1.69-1.06-2.95-1.06c-3.07,0-4.07,3.33-4.07,6.06c0,2.61,1.36,5.9,4.37,5.9
				c0.96,0,1.85-0.32,2.53-0.72l0.02,0.14c0.04,0.5,0.1,1,0.18,1.5c-1.1,0.48-2.37,0.78-3.69,0.78c-4.27,0-7.12-3.19-7.12-7.42
				c0-4.51,3.27-7.68,7.97-7.68c1.12,0,2.09,0.18,2.77,0.5V35.48z"/>
		</g>
	</g>
</g>
</svg>
