<svg width="1107" height="180" viewBox="0 0 1107 180" fill="none" xmlns="http://www.w3.org/2000/svg">
<path d="M313.238 0C321.409 5.69586e-05 329.034 1.02826 336.111 3.08233L340.333 4.35457C346.772 6.41739 352.328 9.05449 356.997 12.2673L355.663 49.0724H344.989L332.565 12.3431C332.077 12.1407 331.595 11.9448 331.114 11.7673C326.134 9.76445 320.619 8.76432 314.572 8.76428C308.702 8.76428 303.455 9.84936 298.83 12.019C294.205 14.1888 290.469 17.3588 287.623 21.5315C284.955 25.5372 283.621 30.3787 283.621 36.0535C283.622 41.2268 284.955 45.8155 287.623 49.8205C290.291 53.6593 293.847 56.9992 298.293 59.8363C302.741 62.6738 307.724 65.4269 313.238 68.0974L322.31 72.3552C330.314 76.194 337.52 80.2831 343.923 84.6228C350.326 88.9622 355.397 94.2209 359.132 100.396C363.045 106.405 365 114 365 123.179C365 132.692 362.687 141.203 358.063 148.714C353.616 156.225 346.678 162.151 337.25 166.49C327.823 170.83 315.728 173 300.965 173C291.893 173 282.997 171.83 274.281 169.493C265.565 167.157 257.471 163.987 250 159.981L252.135 121.424H262.809L274.637 159.515C278.522 161.166 282.494 162.408 286.554 163.236C290.645 163.904 295.093 164.239 299.896 164.239C306.121 164.239 311.636 163.069 316.438 160.733C321.419 158.396 325.332 155.056 328.178 150.717C331.024 146.211 332.448 140.954 332.448 134.947C332.448 129.605 331.201 125.096 328.711 121.424C326.221 117.587 322.754 114.249 318.309 111.412C314.04 108.408 309.147 105.651 303.633 103.148L294.825 98.8929C287.354 95.3881 280.416 91.465 274.013 87.1256C267.609 82.6196 262.453 77.1942 258.539 70.8523C254.626 64.5097 252.668 56.7488 252.667 47.5691C252.667 38.2227 255.071 30.0447 259.873 23.0347C264.676 15.8577 271.614 10.2635 280.685 6.25774C289.757 2.08543 300.609 0 313.238 0Z" fill="#162F30"/>
<path d="M74.9086 0C98.3123 0 115.636 3.79299 126.877 11.3784C138.118 18.7914 143.739 29.136 143.739 42.4104C143.739 49.8232 141.067 56.9786 135.723 63.8742C130.379 70.5971 122.361 76.1115 111.674 80.4211C104.58 83.2817 96.3086 85.2243 86.861 86.262C91.8463 86.7419 96.3395 87.3774 100.34 88.1792C108.264 89.7306 114.622 91.9723 119.413 94.9028C124.205 97.8334 128.075 101.541 131.023 106.023C133.972 110.333 136.46 115.505 138.487 121.539L152.338 159.963L170 162.139V169.897C166.867 170.586 163.826 171.104 160.878 171.449C157.929 171.966 154.98 172.31 152.032 172.483C149.084 172.828 145.95 173 142.633 173C131.761 173 123.191 171.19 116.926 167.57C110.844 163.949 106.606 157.743 104.21 148.95L94.5351 117.142C92.6921 111.454 90.6647 106.626 88.4534 102.661C86.4263 98.524 83.6617 95.4197 80.1608 93.3514C76.6595 91.2831 72.1433 90.2479 66.6156 90.2479H60.2577V117.401C60.2577 126.883 60.3498 136.193 60.5343 145.33C60.6381 150.378 60.7736 155.18 60.9359 159.736L80.437 162.139V169.897H0V162.139L18.6718 159.839C18.8329 155.359 18.9704 150.609 19.0736 145.589C19.4421 136.451 19.6264 127.055 19.6264 117.401V51.7199C19.6264 42.2384 19.5343 33.1004 19.35 24.3084C19.247 19.2996 19.1087 14.5595 18.9483 10.0889L0 7.75802V0H74.9086ZM60.9729 9.05102C60.7951 13.8241 60.6453 18.9102 60.5343 24.3084C60.3498 33.1004 60.2577 42.2384 60.2577 51.7199V81.7144H70.209C79.0546 81.7144 85.9658 80.0765 90.9413 76.801C95.9164 73.3532 99.4185 68.7865 101.446 63.0985C103.473 57.4097 104.486 51.3746 104.486 44.9963C104.486 32.9287 101.722 23.9635 96.1934 18.102C90.665 12.0682 82.4638 9.05102 71.5915 9.05102H60.9729Z" fill="#162F30"/>
<path d="M147.194 83.3939C155.745 83.3939 164.261 83.3939 172.918 83.3939C172.918 70.8144 172.918 58.3409 172.918 45.832C180.374 45.832 187.688 45.832 195.144 45.832C195.144 46.2207 195.18 46.6094 195.18 46.9981C195.18 51.4857 195.321 56.0087 195.109 60.4963C195.003 62.4751 196.028 63.4645 197.441 64.0299C200.869 65.3727 204.261 66.9628 208.077 66.8568C208.43 66.8568 208.749 67.0334 209.102 67.1395C209.773 67.3515 210.409 67.5281 211.081 67.7402C211.752 67.9522 212.423 68.1995 213.13 68.4469C213.519 68.5882 213.872 68.8356 214.226 68.8356C214.897 68.8356 215.18 69.0829 215.427 69.6836C215.71 70.461 216.346 70.5317 216.982 69.9663C217.052 69.8956 217.123 69.825 217.229 69.719C218.819 68.0228 218.889 67.9875 220.939 69.0476C221.858 69.5069 222.706 69.719 223.589 69.0476C223.836 68.8709 224.19 68.8002 224.508 68.7649C226.028 68.5175 227.512 68.2349 229.031 68.0935C229.561 68.0228 230.232 68.1288 230.656 68.4115C232.388 69.5423 234.296 70.1783 236.346 70.2137C237.512 70.249 237.9 70.779 237.971 71.7684C238.253 74.772 238.572 77.8108 238.819 80.8144C238.89 81.4857 238.855 82.1218 238.89 82.7932C238.925 83.4999 238.925 84.1713 239.738 84.5246C239.985 84.6306 240.268 85.0193 240.303 85.302C240.515 87.4928 242.035 89.1183 242.812 91.0264C243.483 92.6518 243.66 94.1359 242.741 95.62C242.035 96.7508 241.752 97.9522 241.929 99.2949C242.247 101.733 241.257 103.465 239.067 104.56C238.43 104.878 237.9 105.302 237.229 105.549C235.003 106.362 233.342 107.882 231.61 109.472C229.632 111.309 227.123 112.369 224.402 112.581C222.883 112.722 221.893 113.217 221.293 114.701C221.081 115.267 220.409 115.761 219.808 116.009C218.819 116.468 218.289 117.175 217.688 118.023C215.78 120.638 214.897 123.5 214.508 126.715C214.296 128.376 214.049 129.896 214.755 131.486C215.356 132.899 215.886 134.313 216.346 135.797C216.487 136.256 216.381 136.786 216.381 137.528C215.78 137.281 215.321 137.139 214.968 136.927C213.66 136.115 212.282 135.691 210.727 135.62C210.162 135.585 209.491 135.514 209.067 135.196C207.971 134.313 206.699 133.959 205.356 133.677C202.67 133.111 201.08 131.344 200.303 128.8C200.197 128.447 200.303 127.988 200.445 127.634C201.081 126.362 200.692 125.302 199.808 124.313C199.349 123.818 198.784 123.359 198.36 122.828C197.441 121.662 196.557 120.461 195.639 119.295C195.109 118.624 194.508 117.952 194.014 117.245C193.201 116.044 192.211 114.878 191.787 113.535C190.939 110.956 189.667 108.765 187.653 106.927C186.911 106.221 186.452 105.231 185.745 104.419C185.462 104.065 184.968 103.783 184.508 103.677C183.059 103.217 181.575 102.935 180.127 102.44C178.784 102.016 176.31 102.935 175.639 104.136C175.109 105.161 174.473 106.15 173.908 107.175C173.589 107.74 173.342 108.341 173.13 108.977C172.741 110.284 172.423 110.461 171.187 109.896C170.374 109.542 169.632 109.083 168.819 108.73C167.511 108.129 166.204 107.634 164.932 106.998C162.706 105.938 161.01 104.383 160.833 101.733C160.727 99.931 160.339 98.2702 159.067 96.9274C158.89 96.7154 158.713 96.4327 158.678 96.1501C158.501 94.5953 157.335 93.9946 156.169 93.2525C154.932 92.4751 153.908 91.3444 152.812 90.3197C151.929 89.5069 151.08 88.6589 150.268 87.7755C149.066 86.4327 147.935 85.0546 146.805 83.6766C147.017 83.6059 147.088 83.4999 147.194 83.3939Z" fill="#CD4A16"/>
<path d="M870.93 152.434C872.2 152.434 873.341 152.591 874.342 152.903C875.348 153.216 876.383 153.811 877.452 154.686C877.921 155.873 878.22 156.968 878.356 157.968C878.556 158.967 878.658 160.061 878.658 161.247C878.658 164.622 877.921 167.563 876.451 170.063C875.045 172.563 873.205 174.624 870.93 176.249C868.655 177.874 866.18 179.125 863.505 180L862.197 177.186C864.272 176.187 865.98 175.217 867.318 174.28C868.655 173.405 869.763 172.375 870.632 171.187C871.24 170.415 871.792 169.504 872.317 168.467L868.123 166.312C866.316 165.437 865.009 164.406 864.204 163.219C863.471 161.969 863.104 160.749 863.101 159.561C863.101 157.562 863.837 155.875 865.307 154.499C866.781 153.125 868.655 152.434 870.93 152.434ZM462.784 102.733C466.06 102.733 469.106 103.172 471.917 104.047C474.793 104.859 477.234 105.951 479.24 107.326L478.741 121.11H474.725L470.054 107.357C469.869 107.281 469.688 107.206 469.506 107.14C467.636 106.39 465.561 106.016 463.286 106.016C461.079 106.016 459.103 106.42 457.361 107.233C455.623 108.045 454.217 109.236 453.148 110.798C452.146 112.298 451.644 114.111 451.644 116.235C451.644 118.172 452.146 119.89 453.148 121.39C454.153 122.827 455.491 124.079 457.165 125.141C458.835 126.204 460.709 127.237 462.784 128.237L466.196 129.83C469.208 131.267 471.917 132.798 474.324 134.423C476.731 136.048 478.639 138.02 480.041 140.332C481.515 142.582 482.248 145.425 482.248 148.862C482.248 152.425 481.379 155.614 479.641 158.427C477.967 161.239 475.359 163.459 471.815 165.085C468.267 166.709 463.721 167.522 458.166 167.522C454.758 167.522 451.41 167.083 448.133 166.209C444.857 165.333 441.811 164.147 439 162.647L439.805 148.207H443.814L448.262 162.468C449.724 163.087 451.221 163.553 452.751 163.864C454.289 164.114 455.959 164.24 457.765 164.24C460.104 164.24 462.179 163.801 463.985 162.926C465.86 162.051 467.333 160.803 468.403 159.178C469.476 157.491 470.009 155.519 470.009 153.269C470.009 151.269 469.54 149.582 468.603 148.207C467.666 146.77 466.362 145.519 464.692 144.456C463.086 143.331 461.246 142.301 459.171 141.363L455.861 139.767C453.05 138.454 450.438 136.985 448.031 135.36C445.624 133.673 443.682 131.643 442.212 129.268C440.738 126.893 440.005 123.986 440.005 120.548C440.005 117.048 440.908 113.985 442.711 111.36C444.517 108.672 447.128 106.578 450.54 105.078C453.953 103.515 458.034 102.733 462.784 102.733ZM733.757 102.733C737.033 102.734 740.078 103.172 742.886 104.047C745.762 104.859 748.203 105.951 750.209 107.326L749.714 121.11H745.698L741.027 107.357C740.842 107.281 740.66 107.206 740.479 107.14C738.609 106.39 736.534 106.016 734.259 106.016C732.052 106.016 730.076 106.42 728.334 107.233C726.596 108.045 725.19 109.236 724.121 110.798C723.119 112.298 722.617 114.111 722.617 116.235C722.617 118.172 723.119 119.89 724.121 121.39C725.126 122.827 726.463 124.079 728.137 125.141C729.808 126.204 731.682 127.237 733.757 128.237L737.165 129.83C740.177 131.268 742.886 132.798 745.297 134.423C747.704 136.048 749.612 138.02 751.014 140.332C752.488 142.582 753.221 145.425 753.221 148.862C753.221 152.425 752.352 155.614 750.614 158.427C748.94 161.239 746.332 163.459 742.788 165.085C739.24 166.709 734.694 167.522 729.139 167.522C725.727 167.522 722.382 167.084 719.102 166.209C715.826 165.333 712.781 164.146 709.973 162.647L710.774 148.207H714.787L719.235 162.468C720.697 163.086 722.19 163.554 723.72 163.864C725.258 164.114 726.932 164.24 728.738 164.24C731.077 164.24 733.152 163.801 734.958 162.926C736.832 162.051 738.306 160.803 739.376 159.178C740.449 157.491 740.982 155.519 740.982 153.269C740.982 151.269 740.513 149.582 739.576 148.207C738.639 146.77 737.331 145.519 735.661 144.456C734.055 143.331 732.219 142.3 730.144 141.363L726.83 139.767C724.022 138.455 721.411 136.985 719.004 135.36C716.597 133.673 714.655 131.643 713.185 129.268C711.711 126.893 710.978 123.986 710.978 120.548C710.978 117.048 711.881 113.985 713.684 111.36C715.49 108.672 718.101 106.578 721.513 105.078C724.926 103.515 729.007 102.733 733.757 102.733ZM671.475 104.323C679.969 104.323 686.261 105.7 690.342 108.45C694.419 111.138 696.46 114.888 696.46 119.7C696.46 122.388 695.493 124.982 693.55 127.482C691.612 129.92 688.702 131.922 684.821 133.485C682.237 134.526 679.217 135.22 675.767 135.595C677.596 135.769 679.24 136.002 680.706 136.295C683.582 136.857 685.891 137.67 687.629 138.732C689.367 139.795 690.777 141.141 691.846 142.767C692.915 144.329 693.819 146.203 694.555 148.39L699.581 162.323L705.994 163.112V165.926C704.856 166.176 703.753 166.363 702.68 166.488C701.61 166.675 700.541 166.801 699.472 166.864C698.402 166.989 697.265 167.05 696.059 167.05C692.114 167.05 689.004 166.393 686.73 165.081C684.519 163.768 682.981 161.518 682.112 158.33L678.598 146.797C677.929 144.734 677.196 142.984 676.391 141.546C675.658 140.046 674.653 138.921 673.379 138.17C672.109 137.42 670.469 137.047 668.463 137.047H666.154V146.89C666.154 150.328 666.188 153.704 666.256 157.016C666.294 158.847 666.343 160.588 666.404 162.24L673.481 163.112V165.926H644.279V163.112L651.05 162.278C651.111 160.654 651.164 158.93 651.201 157.11C651.338 153.797 651.402 150.39 651.402 146.89V123.076C651.402 119.639 651.368 116.326 651.303 113.139C651.266 111.323 651.213 109.602 651.156 107.981L644.279 107.136V104.323H671.475ZM516.998 107.136L510.117 107.981C510.06 109.602 510.011 111.323 509.973 113.139C509.909 116.326 509.841 119.608 509.777 122.983V137.978L534.184 108.312L526.029 107.136V104.323H547.304V107.136L538.983 108.312L524.639 125.151L544.753 162.33L550.614 163.112V165.926H523.218V163.112L528.542 162.413L515.15 136.288L509.777 142.601V146.987C509.841 150.424 509.909 153.767 509.973 157.016C510.011 158.866 510.064 160.625 510.121 162.292L516.495 163.112V165.926H488.098V163.112L494.869 162.278C494.93 160.654 494.983 158.93 495.02 157.11C495.157 153.797 495.221 150.39 495.221 146.89V123.076C495.221 119.639 495.187 116.326 495.123 113.139C495.085 111.323 495.032 109.602 494.975 107.981L488.098 107.136V104.323H516.998V107.136ZM583.24 107.136L576.363 107.967C576.302 109.593 576.253 111.318 576.215 113.139C576.147 116.326 576.083 119.608 576.015 122.983V146.89C576.083 150.328 576.147 153.704 576.215 157.016C576.253 158.862 576.302 160.618 576.363 162.281L583.24 163.112V165.926H554.14V163.112L560.911 162.278C560.968 160.654 561.025 158.93 561.062 157.11C561.195 153.797 561.263 150.39 561.263 146.89V123.076C561.263 119.639 561.195 116.326 561.062 113.139C561.025 111.317 560.968 109.593 560.911 107.967L554.14 107.136V104.323H583.24V107.136ZM636.804 120.731H632.988L627.384 107.512H611.479C611.411 109.27 611.354 111.146 611.313 113.139C611.245 116.326 611.18 119.608 611.112 122.983V132.64H621.417L624.157 124.014H627.267V144.735H624.157L621.44 136.109H611.112V146.89C611.18 150.328 611.245 153.704 611.313 157.016C611.354 159.031 611.415 160.938 611.483 162.737H629.05L634.696 148.673H638.509L637.405 165.926H589.237V163.112L596.012 162.278C596.069 160.654 596.122 158.93 596.16 157.11C596.292 153.797 596.364 150.39 596.364 146.89V123.076C596.364 119.639 596.326 116.326 596.258 113.139C596.22 111.323 596.171 109.602 596.111 107.981L589.237 107.136V104.323H635.697L636.804 120.731ZM787.941 107.136L781.063 107.981C781.003 109.602 780.954 111.323 780.916 113.139C780.852 116.326 780.78 119.608 780.715 122.983V137.981L805.126 108.312L796.972 107.136V104.323H818.246V107.136L809.926 108.312L795.581 125.151L815.7 162.33L821.557 163.112V165.926H794.16V163.112L799.489 162.413L786.097 136.288L780.715 142.604V146.987C780.78 150.424 780.852 153.767 780.916 157.016C780.957 158.866 781.006 160.625 781.067 162.292L787.438 163.112V165.926H759.04V163.112L765.812 162.278C765.872 160.654 765.929 158.93 765.963 157.11C766.099 153.797 766.163 150.39 766.163 146.89V123.076C766.163 119.639 766.129 116.326 766.065 113.139C766.027 111.323 765.974 109.602 765.918 107.981L759.04 107.136V104.323H787.941V107.136ZM854.213 107.136L847.335 107.967C847.275 109.593 847.222 111.318 847.188 113.139C847.12 116.326 847.056 119.608 846.988 122.983V146.89C847.056 150.328 847.12 153.704 847.188 157.016C847.226 158.862 847.275 160.618 847.335 162.281L854.213 163.112V165.926H825.109V163.112L831.884 162.278C831.941 160.654 831.997 158.93 832.035 157.11C832.167 153.797 832.235 150.39 832.235 146.89V123.076C832.235 119.639 832.167 116.326 832.035 113.139C831.997 111.317 831.941 109.593 831.884 107.967L825.109 107.136V104.323H854.213V107.136ZM1039.56 119.138C1041.69 119.138 1043.76 119.357 1045.75 119.79C1047.79 120.223 1049.69 120.936 1051.45 121.931L1052.07 132.257H1049.57L1045.28 122.241C1045.09 122.176 1044.9 122.117 1044.71 122.062C1043.22 121.586 1041.81 121.348 1040.47 121.348C1038.29 121.348 1036.23 122.062 1034.28 123.489C1032.38 124.875 1030.85 127.064 1029.69 130.051C1028.54 133.038 1027.95 136.913 1027.95 141.673C1027.95 146.391 1028.51 150.244 1029.62 153.231C1030.78 156.174 1032.29 158.341 1034.14 159.727C1036.04 161.112 1038.1 161.806 1040.33 161.806C1041.81 161.805 1043.34 161.565 1044.92 161.089C1045.12 161.02 1045.32 160.932 1045.53 160.854L1049.78 150.441H1052.28L1051.72 161.22C1050.06 162.085 1048.16 162.757 1046.03 163.233C1043.9 163.752 1041.69 164.012 1039.43 164.012C1036.46 164.012 1033.63 163.556 1030.94 162.647C1028.26 161.738 1025.87 160.376 1023.79 158.558C1021.75 156.74 1020.13 154.443 1018.92 151.672C1017.76 148.859 1017.18 145.569 1017.18 141.804C1017.18 137.866 1017.81 134.485 1019.06 131.671C1020.31 128.815 1022 126.476 1024.13 124.658C1026.26 122.797 1028.65 121.413 1031.29 120.504C1033.98 119.595 1036.74 119.139 1039.56 119.138ZM921.596 120.245C926.135 120.245 929.774 120.72 932.509 121.673C935.241 122.625 937.237 124.013 938.487 125.831C939.738 127.605 940.362 129.748 940.362 132.257C940.362 134.638 939.761 136.828 938.555 138.819C937.399 140.809 935.427 142.41 932.649 143.622C929.913 144.79 926.161 145.376 921.388 145.377H919.65V149.859C919.699 152.195 919.741 154.491 919.786 156.741C919.813 157.99 919.847 159.18 919.888 160.309L925.56 160.961V162.909H904.501V160.961L909.19 160.382C909.228 159.258 909.266 158.065 909.292 156.806C909.387 154.512 909.432 152.152 909.432 149.728V133.233C909.432 130.853 909.41 128.558 909.364 126.351C909.338 125.094 909.3 123.901 909.258 122.779L904.501 122.193V120.245H921.596ZM963.616 122.193L958.708 122.786C958.67 123.906 958.64 125.097 958.613 126.351C958.568 128.558 958.519 130.831 958.473 133.168V149.859C958.519 152.196 958.568 154.513 958.613 156.806C958.64 158.161 958.677 159.439 958.723 160.637H970.059L974.11 149.921H976.683L975.916 162.909H943.32V160.961L948.01 160.382C948.051 159.258 948.093 158.065 948.119 156.806C948.21 154.513 948.256 152.196 948.256 149.859V133.168C948.256 130.831 948.229 128.558 948.184 126.351C948.157 125.094 948.119 123.901 948.082 122.779L943.32 122.193V120.245H963.616V122.193ZM1000.41 122.193L995.513 122.786C995.471 123.906 995.437 125.097 995.411 126.351C995.366 128.558 995.32 130.831 995.275 133.168V149.859C995.32 152.196 995.366 154.513 995.411 156.806C995.441 158.161 995.483 159.439 995.524 160.637H1006.86L1010.91 149.921H1013.48L1012.72 162.909H980.122V160.961L984.812 160.382C984.853 159.258 984.891 158.065 984.917 156.806C985.008 154.513 985.057 152.196 985.057 149.859V133.168C985.057 130.831 985.034 128.558 984.985 126.351C984.963 125.094 984.925 123.901 984.883 122.779L980.122 122.193V120.245H1000.41V122.193ZM919.786 126.351C919.741 128.558 919.699 130.831 919.65 133.168V143.104H921.596C923.588 143.104 925.212 142.648 926.463 141.739C927.759 140.787 928.712 139.509 929.312 137.908C929.962 136.264 930.284 134.4 930.284 132.323C930.284 129.164 929.52 126.739 927.99 125.051C926.463 123.364 924.26 122.518 921.388 122.517H919.903C919.858 123.716 919.816 124.996 919.786 126.351ZM666.256 113.139C666.188 116.326 666.154 119.639 666.154 123.076V133.954H669.767C672.979 133.954 675.488 133.358 677.294 132.171C679.1 130.921 680.374 129.265 681.107 127.203C681.844 125.14 682.21 122.951 682.21 120.638C682.21 116.263 681.209 113.013 679.198 110.888C677.192 108.7 674.218 107.605 670.269 107.605H666.419C666.354 109.336 666.294 111.182 666.256 113.139ZM610.118 7C614.271 7 618.247 7.73543 622.041 9.20663C625.831 10.611 629.198 12.7512 632.13 15.6266C635.138 18.502 637.5 22.1134 639.215 26.4597C640.934 30.8062 641.792 35.8889 641.792 41.7063C641.792 47.4573 640.934 52.5092 639.215 56.8561C637.5 61.2023 635.138 64.8141 632.13 67.6895C629.198 70.5648 625.831 72.7379 622.041 74.2091C620.427 74.8058 618.779 75.2658 617.105 75.609C616.954 78.0995 617.268 80.274 618.065 82.1325C619.067 84.4726 620.605 86.2121 622.679 87.349C624.758 88.5525 627.119 89.1556 629.764 89.1556C630.841 89.1556 632.024 89.0528 633.313 88.8523C634.673 88.7185 635.996 88.4202 637.284 87.9523L638.573 90.559C636.925 92.0966 634.813 93.2334 632.24 93.9689C629.734 94.7046 627.225 95.0722 624.72 95.0722C619.924 95.0722 615.881 94.2044 612.59 92.4655C609.295 90.7938 606.793 88.4184 605.074 85.3425C603.547 82.4891 602.735 79.2045 602.625 75.4882C601.167 75.1595 599.727 74.7341 598.31 74.2091C594.516 72.7379 591.119 70.5648 588.111 67.6895C585.175 64.8138 582.851 61.2355 581.131 56.956C579.416 52.6092 578.558 47.4912 578.558 41.6064C578.558 35.8553 579.416 30.8063 581.131 26.4597C582.851 22.1132 585.175 18.502 588.111 15.6266C591.119 12.751 594.516 10.611 598.31 9.20663C602.104 7.73557 606.041 7.00014 610.118 7ZM537.354 7C541.507 7.00004 545.479 7.73571 549.272 9.20663C553.066 10.6109 556.43 12.7511 559.366 15.6266C562.37 18.502 564.732 22.1133 566.451 26.4597C568.166 30.8062 569.028 35.8889 569.028 41.7063C569.028 47.4573 568.166 52.5092 566.451 56.8561C564.732 61.2023 562.37 64.8141 559.366 67.6895C556.43 70.5644 553.063 72.7382 549.272 74.2091C545.479 75.6132 541.507 76.3158 537.354 76.3158C533.277 76.3158 529.339 75.6132 525.546 74.2091C521.755 72.7382 518.354 70.5644 515.347 67.6895C512.414 64.8141 510.086 61.2355 508.367 56.956C506.652 52.6092 505.79 47.4912 505.79 41.6064C505.79 35.8553 506.652 30.8063 508.367 26.4597C510.086 22.1134 512.414 18.5019 515.347 15.6266C518.354 12.7513 521.755 10.6109 525.546 9.20663C529.339 7.73578 533.277 7 537.354 7ZM895.844 7C899.993 7 903.964 7.73578 907.758 9.20663C911.552 10.6109 914.915 12.7512 917.851 15.6266C920.856 18.5019 923.217 22.1134 924.937 26.4597C926.652 30.8062 927.514 35.8889 927.514 41.7063C927.514 47.4573 926.652 52.5092 924.937 56.8561C923.217 61.202 920.856 64.8141 917.851 67.6895C914.915 70.5644 911.552 72.7382 907.758 74.2091C903.964 75.6132 899.993 76.3158 895.844 76.3158C891.763 76.3158 887.825 75.6132 884.035 74.2091C880.241 72.7382 876.84 70.5644 873.832 67.6895C870.9 64.8141 868.572 61.2355 866.857 56.956C865.137 52.6092 864.276 47.4912 864.276 41.6064C864.276 35.8553 865.137 30.8063 866.857 26.4597C868.572 22.1133 870.9 18.502 873.832 15.6266C876.84 12.7512 880.241 10.6109 884.035 9.20663C887.825 7.73567 891.763 7 895.844 7ZM677.706 11.7098L670.345 12.62C670.284 14.3108 670.228 16.1128 670.19 18.0263C670.118 21.4364 670.08 24.9819 670.08 28.6595V49.2261C670.08 54.0398 670.621 57.8839 671.694 60.7592C672.839 63.6346 674.52 65.7084 676.738 66.9791C678.957 68.1827 681.677 68.7857 684.897 68.7857C688.048 68.7857 690.765 68.1495 693.055 66.8792C695.349 65.6085 697.136 63.5346 698.425 60.659C699.713 57.7172 700.36 53.8728 700.36 49.1259V12.6062L692.201 11.7098V8.69981H712.063V11.7098L704.652 12.5752V47.9191C704.652 54.7402 703.723 60.2261 701.864 64.3724C700.001 68.5177 697.246 71.5597 693.596 73.4991C690.017 75.3714 685.615 76.3091 680.389 76.3091C675.45 76.3087 670.98 75.5398 666.97 74.0022C663.033 72.3975 659.919 69.823 657.629 66.279C655.407 62.735 654.304 57.9842 654.304 52.0326V39.1928C654.304 35.7823 654.262 32.2704 654.19 28.6595C654.19 25.0493 654.156 21.5394 654.085 18.1297C654.085 16.1715 654.058 14.3179 654.013 12.5717L647.105 11.7098V8.69981H677.706V11.7098ZM468.093 8.69981C477.185 8.69981 483.915 10.1706 488.279 13.1131C492.644 15.9886 494.828 20.0005 494.828 25.1495C494.828 28.0251 493.792 30.8012 491.714 33.4761C489.639 36.0841 486.526 38.2244 482.377 39.8961C479.611 41.0097 476.383 41.7564 472.695 42.1578C474.649 42.3443 476.406 42.5928 477.974 42.906C481.05 43.5076 483.518 44.3761 485.381 45.5126C487.24 46.6491 488.744 48.0875 489.889 49.826C491.034 51.4977 492.001 53.5052 492.787 55.846L498.164 70.7477L505.03 71.5922V74.6024C503.814 74.8697 502.631 75.072 501.486 75.2058C500.341 75.4063 499.196 75.5387 498.051 75.6054C496.906 75.7393 495.686 75.8056 494.397 75.8056C490.176 75.8053 486.851 75.103 484.417 73.6989C482.055 72.2948 480.404 69.8894 479.475 66.4792L475.718 54.1393C475 51.9327 474.214 50.0604 473.357 48.5225C472.571 46.9178 471.494 45.7153 470.133 44.9128C468.777 44.1103 467.023 43.706 464.877 43.706H462.402V54.2392C462.402 57.9167 462.444 61.5285 462.515 65.0722C462.553 67.0303 462.606 68.8941 462.67 70.6612L470.243 71.5922V74.6024H439V71.5922L446.248 70.6993C446.312 68.9626 446.365 67.1217 446.406 65.1757C446.55 61.6316 446.626 57.9842 446.626 54.2392V28.7595C446.626 25.0826 446.588 21.5393 446.516 18.1297C446.478 16.1869 446.418 14.3472 446.354 12.6131L439 11.7098V8.69981H468.093ZM962.445 8.69981C971.533 8.69981 978.263 10.1706 982.627 13.1131C986.996 15.9885 989.176 20.0008 989.176 25.1495C989.176 28.025 988.141 30.8013 986.066 33.4761C983.988 36.0841 980.874 38.2244 976.725 39.8961C973.959 41.0097 970.732 41.7564 967.044 42.1578C968.997 42.3443 970.758 42.5928 972.323 42.906C975.398 43.5079 977.866 44.3761 979.729 45.5126C981.588 46.6495 983.092 48.0875 984.237 49.826C985.382 51.4977 986.349 53.5052 987.139 55.846L992.516 70.7477L999.375 71.5922V74.6024C998.158 74.8697 996.975 75.072 995.83 75.2058C994.689 75.4063 993.54 75.5387 992.395 75.6054C991.251 75.7393 990.034 75.8056 988.745 75.8056C984.524 75.8056 981.195 75.1034 978.762 73.6989C976.4 72.2944 974.752 69.8883 973.823 66.4792L970.067 54.1393C969.352 51.9327 968.563 50.0604 967.705 48.5225C966.919 46.9182 965.842 45.7153 964.485 44.9128C963.125 44.1103 961.368 43.706 959.222 43.706H956.754V54.2392C956.754 57.9167 956.788 61.5285 956.86 65.0722C956.901 67.0303 956.954 68.8941 957.019 70.6612L964.591 71.5922V74.6024H933.348V71.5922L940.596 70.6993C940.66 68.963 940.717 67.1217 940.755 65.1757C940.898 61.6316 940.97 57.9842 940.97 54.2392V28.7595C940.97 25.0825 940.936 21.5393 940.864 18.1297C940.823 16.1869 940.766 14.3472 940.705 12.6131L933.348 11.7098V8.69981H962.445ZM767.845 26.2529H763.768L757.771 12.1097H740.759C740.687 13.9903 740.619 15.9978 740.577 18.1297C740.505 21.5394 740.434 25.0493 740.362 28.6595V38.9926H751.385L754.317 29.7628H757.646V51.9327H754.317L751.415 42.7061H740.362V54.2392C740.434 57.9167 740.505 61.5285 740.577 65.0722C740.619 67.2277 740.687 69.2684 740.762 71.1922H759.551L765.593 56.1458H769.674L768.491 74.6024H716.96V71.5957L724.208 70.7028C724.268 68.9651 724.325 67.1232 724.366 65.1757C724.51 61.6316 724.578 57.9842 724.578 54.2392V28.7595C724.578 25.0825 724.544 21.5393 724.472 18.1297C724.431 16.1869 724.374 14.3472 724.313 12.6131L716.96 11.7098V8.69981H766.666L767.845 26.2529ZM817.347 54.9634L834.378 8.69981H858.32V11.7098L851.069 12.5993C851.005 14.3374 850.952 16.1818 850.91 18.1297C850.838 21.5393 850.804 25.0826 850.804 28.7595V54.2392C850.804 57.9842 850.838 61.6316 850.91 65.1757C850.952 67.1203 851.005 68.9605 851.069 70.6958L858.426 71.5957V74.6024H827.508V71.5957L834.646 70.6753C834.711 68.904 834.767 67.0356 834.805 65.0722C834.877 61.5953 834.915 58.0498 834.915 54.4391C834.983 50.7619 835.02 47.2853 835.02 44.0093L835.092 18.5814L814.838 74.6024H808.289L787.74 19.8364L787.888 40.7993V70.5683L796.156 71.5957V74.6024H775.433V71.5957L783.705 70.6026V12.72L775.973 11.7098V8.69981H800.237L817.347 54.9634ZM1054.17 26.2529H1050.09L1044.1 12.1097H1027.08C1027.01 13.9903 1026.95 15.9978 1026.9 18.1297C1026.83 21.5394 1026.76 25.0493 1026.69 28.6595V38.9926H1037.71L1040.65 29.7628H1043.98V51.9327H1040.65L1037.74 42.7061H1026.69V54.2392C1026.76 57.9167 1026.83 61.5285 1026.9 65.0722C1026.95 67.2277 1027.02 69.2684 1027.09 71.1922H1045.88L1051.92 56.1458H1056L1054.82 74.6024H1003.29V71.5957L1010.53 70.7028C1010.6 68.9651 1010.65 67.1232 1010.69 65.1757C1010.84 61.6316 1010.91 57.9842 1010.91 54.2392V28.7595C1010.91 25.0825 1010.87 21.5393 1010.8 18.1297C1010.76 16.1869 1010.7 14.3472 1010.64 12.6131L1003.29 11.7098V8.69981H1052.99L1054.17 26.2529ZM537.354 10.4099C534.781 10.4099 532.559 11.1787 530.7 12.7166C528.837 14.1876 527.299 16.3282 526.082 19.1365C524.937 21.8783 524.079 25.158 523.505 28.9698C522.934 32.714 522.647 36.9262 522.647 41.6064C522.647 46.2202 522.934 50.4675 523.505 54.3462C524.079 58.1572 524.937 61.4343 526.082 64.1758C527.299 66.9173 528.837 69.0579 530.7 70.5959C532.559 72.0671 534.781 72.8025 537.354 72.8025C540.003 72.8025 542.259 72.0671 544.118 70.5959C545.981 69.1246 547.485 67.0172 548.63 64.2761C549.847 61.4675 550.705 58.1572 551.203 54.3462C551.778 50.5346 552.065 46.2872 552.065 41.6064C552.065 36.9929 551.778 32.7809 551.203 28.9698C550.705 25.158 549.847 21.8783 548.63 19.1365C547.485 16.395 545.981 14.2545 544.118 12.7166C542.259 11.1787 540.003 10.41 537.354 10.4099ZM610.118 10.4099C607.545 10.4102 605.327 11.1796 603.468 12.7166C601.605 14.1877 600.063 16.328 598.846 19.1365C597.701 21.8783 596.844 25.158 596.269 28.9698C595.699 32.714 595.411 36.9262 595.411 41.6064C595.411 46.2202 595.699 50.4675 596.269 54.3462C596.844 58.1572 597.701 61.4343 598.846 64.1758C600.063 66.9177 601.605 69.0576 603.468 70.5959C605.327 72.0667 607.545 72.8021 610.118 72.8025C612.767 72.8025 615.023 72.0671 616.883 70.5959C618.745 69.1246 620.249 67.0176 621.394 64.2761C622.611 61.4675 623.469 58.1572 623.968 54.3462C624.542 50.5342 624.829 46.2872 624.829 41.6064C624.829 36.9929 624.542 32.7809 623.968 28.9698C623.469 25.158 622.611 21.8783 621.394 19.1365C620.249 16.3952 618.745 14.2544 616.883 12.7166C615.023 11.1791 612.767 10.4099 610.118 10.4099ZM895.844 10.4099C893.267 10.4099 891.045 11.1786 889.186 12.7166C887.323 14.1877 885.785 16.3282 884.568 19.1365C883.423 21.8783 882.565 25.158 881.995 28.9698C881.42 32.714 881.133 36.9262 881.133 41.6064C881.133 46.2202 881.42 50.4675 881.995 54.3462C882.565 58.1572 883.423 61.4343 884.568 64.1758C885.785 66.9173 887.323 69.0579 889.186 70.5959C891.045 72.0671 893.267 72.8025 895.844 72.8025C898.489 72.8025 900.745 72.0671 902.608 70.5959C904.467 69.1246 905.971 67.0172 907.116 64.2761C908.333 61.4675 909.19 58.1572 909.693 54.3462C910.264 50.5346 910.551 46.2872 910.551 41.6064C910.551 36.9929 910.264 32.7809 909.693 28.9698C909.19 25.158 908.333 21.8783 907.116 19.1365C905.971 16.395 904.467 14.2545 902.608 12.7166C900.745 11.1787 898.489 10.4099 895.844 10.4099ZM462.515 18.1297C462.444 21.5393 462.402 25.0825 462.402 28.7595V40.3961H466.271C469.706 40.3961 472.389 39.763 474.324 38.4927C476.255 37.1557 477.612 35.3822 478.401 33.1762C479.187 30.9693 479.58 28.6272 479.58 26.1529C479.58 21.4718 478.511 17.9933 476.365 15.7197C474.218 13.3791 471.029 12.2097 466.804 12.2097H462.689C462.617 14.0614 462.557 16.0355 462.515 18.1297ZM956.86 18.1297C956.788 21.5393 956.754 25.0826 956.754 28.7595V40.3961H960.62C964.055 40.3957 966.741 39.763 968.672 38.4927C970.603 37.1557 971.964 35.3822 972.75 33.1762C973.536 30.9693 973.932 28.6272 973.932 26.1529C973.932 21.4718 972.855 17.9933 970.709 15.7197C968.563 13.3799 965.377 12.2097 961.156 12.2097H957.037C956.969 14.0614 956.901 16.0355 956.86 18.1297Z" fill="#162F30"/>
</svg>
