<svg width="1107" height="180" viewBox="0 0 1107 180" fill="none" xmlns="http://www.w3.org/2000/svg">
<path d="M313.238 0C321.409 5.69586e-05 329.034 1.02826 336.111 3.08233L340.333 4.35457C346.772 6.41739 352.328 9.05449 356.997 12.2673L355.663 49.0724H344.989L332.565 12.3431C332.077 12.1407 331.595 11.9448 331.114 11.7673C326.134 9.76445 320.619 8.76432 314.572 8.76428C308.702 8.76428 303.455 9.84936 298.83 12.019C294.205 14.1888 290.469 17.3588 287.623 21.5315C284.955 25.5372 283.621 30.3787 283.621 36.0535C283.622 41.2268 284.955 45.8155 287.623 49.8205C290.291 53.6593 293.847 56.9992 298.293 59.8363C302.741 62.6738 307.724 65.4269 313.238 68.0974L322.31 72.3552C330.314 76.194 337.52 80.2831 343.923 84.6228C350.326 88.9622 355.397 94.2209 359.132 100.396C363.045 106.405 365 114 365 123.179C365 132.692 362.687 141.203 358.063 148.714C353.616 156.225 346.678 162.151 337.25 166.49C327.823 170.83 315.728 173 300.965 173C291.893 173 282.997 171.83 274.281 169.493C265.565 167.157 257.471 163.987 250 159.981L252.135 121.424H262.809L274.637 159.515C278.522 161.166 282.494 162.408 286.554 163.236C290.645 163.904 295.093 164.239 299.896 164.239C306.121 164.239 311.636 163.069 316.438 160.733C321.419 158.396 325.332 155.056 328.178 150.717C331.024 146.211 332.448 140.954 332.448 134.947C332.448 129.605 331.201 125.096 328.711 121.424C326.221 117.587 322.754 114.249 318.309 111.412C314.04 108.408 309.147 105.651 303.633 103.148L294.825 98.8929C287.354 95.3881 280.416 91.465 274.013 87.1256C267.609 82.6196 262.453 77.1942 258.539 70.8523C254.626 64.5097 252.668 56.7488 252.667 47.5691C252.667 38.2227 255.071 30.0447 259.873 23.0347C264.676 15.8577 271.614 10.2635 280.685 6.25774C289.757 2.08543 300.609 0 313.238 0Z" fill="#162F30"/>
<path d="M74.9086 0C98.3123 0 115.636 3.79299 126.877 11.3784C138.118 18.7914 143.739 29.136 143.739 42.4104C143.739 49.8232 141.067 56.9786 135.723 63.8742C130.379 70.5971 122.361 76.1115 111.674 80.4211C104.58 83.2817 96.3086 85.2243 86.861 86.262C91.8463 86.7419 96.3395 87.3774 100.34 88.1792C108.264 89.7306 114.622 91.9723 119.413 94.9028C124.205 97.8334 128.075 101.541 131.023 106.023C133.972 110.333 136.46 115.505 138.487 121.539L152.338 159.963L170 162.139V169.897C166.867 170.586 163.826 171.104 160.878 171.449C157.929 171.966 154.98 172.31 152.032 172.483C149.084 172.828 145.95 173 142.633 173C131.761 173 123.191 171.19 116.926 167.57C110.844 163.949 106.606 157.743 104.21 148.95L94.5351 117.142C92.6921 111.454 90.6647 106.626 88.4534 102.661C86.4263 98.524 83.6617 95.4197 80.1608 93.3514C76.6595 91.2831 72.1433 90.2479 66.6156 90.2479H60.2577V117.401C60.2577 126.883 60.3498 136.193 60.5343 145.33C60.6381 150.378 60.7736 155.18 60.9359 159.736L80.437 162.139V169.897H0V162.139L18.6718 159.839C18.8329 155.359 18.9704 150.609 19.0736 145.589C19.4421 136.451 19.6264 127.055 19.6264 117.401V51.7199C19.6264 42.2384 19.5343 33.1004 19.35 24.3084C19.247 19.2996 19.1087 14.5595 18.9483 10.0889L0 7.75802V0H74.9086ZM60.9729 9.05102C60.7951 13.8241 60.6453 18.9102 60.5343 24.3084C60.3498 33.1004 60.2577 42.2384 60.2577 51.7199V81.7144H70.209C79.0546 81.7144 85.9658 80.0765 90.9413 76.801C95.9164 73.3532 99.4185 68.7865 101.446 63.0985C103.473 57.4097 104.486 51.3746 104.486 44.9963C104.486 32.9287 101.722 23.9635 96.1934 18.102C90.665 12.0682 82.4638 9.05102 71.5915 9.05102H60.9729Z" fill="#162F30"/>
<path d="M147.194 83.3939C155.745 83.3939 164.261 83.3939 172.918 83.3939C172.918 70.8144 172.918 58.3409 172.918 45.832C180.374 45.832 187.688 45.832 195.144 45.832C195.144 46.2207 195.18 46.6094 195.18 46.9981C195.18 51.4857 195.321 56.0087 195.109 60.4963C195.003 62.4751 196.028 63.4645 197.441 64.0299C200.869 65.3727 204.261 66.9628 208.077 66.8568C208.43 66.8568 208.749 67.0334 209.102 67.1395C209.773 67.3515 210.409 67.5281 211.081 67.7402C211.752 67.9522 212.423 68.1995 213.13 68.4469C213.519 68.5882 213.872 68.8356 214.226 68.8356C214.897 68.8356 215.18 69.0829 215.427 69.6836C215.71 70.461 216.346 70.5317 216.982 69.9663C217.052 69.8956 217.123 69.825 217.229 69.719C218.819 68.0228 218.889 67.9875 220.939 69.0476C221.858 69.5069 222.706 69.719 223.589 69.0476C223.836 68.8709 224.19 68.8002 224.508 68.7649C226.028 68.5175 227.512 68.2349 229.031 68.0935C229.561 68.0228 230.232 68.1288 230.656 68.4115C232.388 69.5423 234.296 70.1783 236.346 70.2137C237.512 70.249 237.9 70.779 237.971 71.7684C238.253 74.772 238.572 77.8108 238.819 80.8144C238.89 81.4857 238.855 82.1218 238.89 82.7932C238.925 83.4999 238.925 84.1713 239.738 84.5246C239.985 84.6306 240.268 85.0193 240.303 85.302C240.515 87.4928 242.035 89.1183 242.812 91.0264C243.483 92.6518 243.66 94.1359 242.741 95.62C242.035 96.7508 241.752 97.9522 241.929 99.2949C242.247 101.733 241.257 103.465 239.067 104.56C238.43 104.878 237.9 105.302 237.229 105.549C235.003 106.362 233.342 107.882 231.61 109.472C229.632 111.309 227.123 112.369 224.402 112.581C222.883 112.722 221.893 113.217 221.293 114.701C221.081 115.267 220.409 115.761 219.808 116.009C218.819 116.468 218.289 117.175 217.688 118.023C215.78 120.638 214.897 123.5 214.508 126.715C214.296 128.376 214.049 129.896 214.755 131.486C215.356 132.899 215.886 134.313 216.346 135.797C216.487 136.256 216.381 136.786 216.381 137.528C215.78 137.281 215.321 137.139 214.968 136.927C213.66 136.115 212.282 135.691 210.727 135.62C210.162 135.585 209.491 135.514 209.067 135.196C207.971 134.313 206.699 133.959 205.356 133.677C202.67 133.111 201.08 131.344 200.303 128.8C200.197 128.447 200.303 127.988 200.445 127.634C201.081 126.362 200.692 125.302 199.808 124.313C199.349 123.818 198.784 123.359 198.36 122.828C197.441 121.662 196.557 120.461 195.639 119.295C195.109 118.624 194.508 117.952 194.014 117.245C193.201 116.044 192.211 114.878 191.787 113.535C190.939 110.956 189.667 108.765 187.653 106.927C186.911 106.221 186.452 105.231 185.745 104.419C185.462 104.065 184.968 103.783 184.508 103.677C183.059 103.217 181.575 102.935 180.127 102.44C178.784 102.016 176.31 102.935 175.639 104.136C175.109 105.161 174.473 106.15 173.908 107.175C173.589 107.74 173.342 108.341 173.13 108.977C172.741 110.284 172.423 110.461 171.187 109.896C170.374 109.542 169.632 109.083 168.819 108.73C167.511 108.129 166.204 107.634 164.932 106.998C162.706 105.938 161.01 104.383 160.833 101.733C160.727 99.931 160.339 98.2702 159.067 96.9274C158.89 96.7154 158.713 96.4327 158.678 96.1501C158.501 94.5953 157.335 93.9946 156.169 93.2525C154.932 92.4751 153.908 91.3444 152.812 90.3197C151.929 89.5069 151.08 88.6589 150.268 87.7755C149.066 86.4327 147.935 85.0546 146.805 83.6766C147.017 83.6059 147.088 83.4999 147.194 83.3939Z" fill="#CD4A16"/>
<path d="M432.784 102.733C436.06 102.733 439.106 103.172 441.917 104.047C444.793 104.859 447.234 105.951 449.24 107.326L448.741 121.11H444.725L440.054 107.357C439.869 107.281 439.688 107.206 439.506 107.14C437.636 106.39 435.561 106.016 433.286 106.016C431.079 106.016 429.103 106.42 427.361 107.233C425.623 108.045 424.217 109.236 423.148 110.798C422.146 112.298 421.644 114.111 421.644 116.235C421.644 118.172 422.146 119.89 423.148 121.39C424.153 122.827 425.491 124.079 427.165 125.141C428.835 126.204 430.709 127.237 432.784 128.237L436.196 129.83C439.208 131.267 441.917 132.798 444.324 134.423C446.731 136.048 448.639 138.02 450.041 140.332C451.515 142.582 452.248 145.425 452.248 148.862C452.248 152.425 451.379 155.614 449.641 158.427C447.967 161.239 445.359 163.459 441.815 165.085C438.267 166.709 433.721 167.522 428.166 167.522C424.758 167.522 421.41 167.083 418.133 166.209C414.857 165.333 411.811 164.147 409 162.647L409.805 148.207H413.814L418.262 162.468C419.724 163.087 421.221 163.553 422.751 163.864C424.289 164.114 425.959 164.24 427.765 164.24C430.104 164.24 432.179 163.801 433.985 162.926C435.86 162.051 437.333 160.803 438.403 159.178C439.476 157.491 440.009 155.519 440.009 153.269C440.009 151.269 439.54 149.582 438.603 148.207C437.666 146.77 436.362 145.519 434.692 144.456C433.086 143.331 431.246 142.301 429.171 141.363L425.861 139.767C423.05 138.454 420.438 136.985 418.031 135.36C415.624 133.673 413.682 131.643 412.212 129.268C410.738 126.893 410.005 123.986 410.005 120.548C410.005 117.048 410.908 113.985 412.711 111.36C414.517 108.672 417.128 106.578 420.54 105.078C423.953 103.515 428.034 102.733 432.784 102.733ZM703.757 102.733C707.033 102.734 710.078 103.172 712.886 104.047C715.762 104.859 718.203 105.951 720.209 107.326L719.714 121.11H715.698L711.027 107.357C710.842 107.281 710.66 107.206 710.479 107.14C708.609 106.39 706.534 106.016 704.259 106.016C702.052 106.016 700.076 106.42 698.334 107.233C696.596 108.045 695.19 109.236 694.121 110.798C693.119 112.298 692.617 114.111 692.617 116.235C692.617 118.172 693.119 119.89 694.121 121.39C695.126 122.827 696.463 124.079 698.137 125.141C699.808 126.204 701.682 127.237 703.757 128.237L707.165 129.83C710.177 131.268 712.886 132.798 715.297 134.423C717.704 136.048 719.612 138.02 721.014 140.332C722.488 142.582 723.221 145.425 723.221 148.862C723.221 152.425 722.352 155.614 720.614 158.427C718.94 161.239 716.332 163.459 712.788 165.085C709.24 166.709 704.694 167.522 699.139 167.522C695.727 167.522 692.382 167.084 689.102 166.209C685.826 165.333 682.781 164.146 679.973 162.647L680.774 148.207H684.787L689.235 162.468C690.697 163.086 692.19 163.554 693.72 163.864C695.258 164.114 696.932 164.24 698.738 164.24C701.077 164.24 703.152 163.801 704.958 162.926C706.832 162.051 708.306 160.803 709.376 159.178C710.449 157.491 710.982 155.519 710.982 153.269C710.982 151.269 710.513 149.582 709.576 148.207C708.639 146.77 707.331 145.519 705.661 144.456C704.055 143.331 702.219 142.3 700.144 141.363L696.83 139.767C694.022 138.455 691.411 136.985 689.004 135.36C686.597 133.673 684.655 131.643 683.185 129.268C681.711 126.893 680.978 123.986 680.978 120.548C680.978 117.048 681.881 113.985 683.684 111.36C685.49 108.672 688.101 106.578 691.513 105.078C694.926 103.515 699.007 102.733 703.757 102.733ZM641.475 104.323C649.969 104.323 656.261 105.7 660.342 108.45C664.419 111.138 666.46 114.888 666.46 119.7C666.46 122.388 665.493 124.982 663.55 127.482C661.612 129.92 658.702 131.922 654.821 133.485C652.237 134.526 649.217 135.22 645.767 135.595C647.596 135.769 649.24 136.002 650.706 136.295C653.582 136.857 655.891 137.67 657.629 138.732C659.367 139.795 660.777 141.141 661.846 142.767C662.915 144.329 663.819 146.203 664.555 148.39L669.581 162.323L675.994 163.112V165.926C674.856 166.176 673.753 166.363 672.68 166.488C671.61 166.675 670.541 166.801 669.472 166.864C668.402 166.989 667.265 167.05 666.059 167.05C662.114 167.05 659.004 166.393 656.73 165.081C654.519 163.768 652.981 161.518 652.112 158.33L648.598 146.797C647.929 144.734 647.196 142.984 646.391 141.546C645.658 140.046 644.653 138.921 643.379 138.17C642.109 137.42 640.469 137.047 638.463 137.047H636.154V146.89C636.154 150.328 636.188 153.704 636.256 157.016C636.294 158.847 636.343 160.588 636.404 162.24L643.481 163.112V165.926H614.279V163.112L621.05 162.278C621.111 160.654 621.164 158.93 621.201 157.11C621.338 153.797 621.402 150.39 621.402 146.89V123.076C621.402 119.639 621.368 116.326 621.303 113.139C621.266 111.323 621.213 109.602 621.156 107.981L614.279 107.136V104.323H641.475ZM486.998 107.136L480.117 107.981C480.06 109.602 480.011 111.323 479.973 113.139C479.909 116.326 479.841 119.608 479.777 122.983V137.978L504.184 108.312L496.029 107.136V104.323H517.304V107.136L508.983 108.312L494.639 125.151L514.753 162.33L520.614 163.112V165.926H493.218V163.112L498.542 162.413L485.15 136.288L479.777 142.601V146.987C479.841 150.424 479.909 153.767 479.973 157.016C480.011 158.866 480.064 160.625 480.121 162.292L486.495 163.112V165.926H458.098V163.112L464.869 162.278C464.93 160.654 464.983 158.93 465.02 157.11C465.157 153.797 465.221 150.39 465.221 146.89V123.076C465.221 119.639 465.187 116.326 465.123 113.139C465.085 111.323 465.032 109.602 464.975 107.981L458.098 107.136V104.323H486.998V107.136ZM553.24 107.136L546.363 107.967C546.302 109.593 546.253 111.318 546.215 113.139C546.147 116.326 546.083 119.608 546.015 122.983V146.89C546.083 150.328 546.147 153.704 546.215 157.016C546.253 158.862 546.302 160.618 546.363 162.281L553.24 163.112V165.926H524.14V163.112L530.911 162.278C530.968 160.654 531.025 158.93 531.062 157.11C531.195 153.797 531.263 150.39 531.263 146.89V123.076C531.263 119.639 531.195 116.326 531.062 113.139C531.025 111.317 530.968 109.593 530.911 107.967L524.14 107.136V104.323H553.24V107.136ZM606.804 120.731H602.988L597.384 107.512H581.479C581.411 109.27 581.354 111.146 581.313 113.139C581.245 116.326 581.18 119.608 581.112 122.983V132.64H591.417L594.157 124.014H597.267V144.735H594.157L591.44 136.109H581.112V146.89C581.18 150.328 581.245 153.704 581.313 157.016C581.354 159.031 581.415 160.938 581.483 162.737H599.05L604.696 148.673H608.509L607.405 165.926H559.237V163.112L566.012 162.278C566.069 160.654 566.122 158.93 566.16 157.11C566.292 153.797 566.364 150.39 566.364 146.89V123.076C566.364 119.639 566.326 116.326 566.258 113.139C566.22 111.323 566.171 109.602 566.111 107.981L559.237 107.136V104.323H605.697L606.804 120.731ZM757.941 107.136L751.063 107.981C751.003 109.602 750.954 111.323 750.916 113.139C750.852 116.326 750.78 119.608 750.715 122.983V137.981L775.126 108.312L766.972 107.136V104.323H788.246V107.136L779.926 108.312L765.581 125.151L785.7 162.33L791.557 163.112V165.926H764.16V163.112L769.489 162.413L756.097 136.288L750.715 142.604V146.987C750.78 150.424 750.852 153.767 750.916 157.016C750.957 158.866 751.006 160.625 751.067 162.292L757.438 163.112V165.926H729.04V163.112L735.812 162.278C735.872 160.654 735.929 158.93 735.963 157.11C736.099 153.797 736.163 150.39 736.163 146.89V123.076C736.163 119.639 736.129 116.326 736.065 113.139C736.027 111.323 735.974 109.602 735.918 107.981L729.04 107.136V104.323H757.941V107.136ZM824.213 107.136L817.335 107.967C817.275 109.593 817.222 111.318 817.188 113.139C817.12 116.326 817.056 119.608 816.988 122.983V146.89C817.056 150.328 817.12 153.704 817.188 157.016C817.226 158.862 817.275 160.618 817.335 162.281L824.213 163.112V165.926H795.109V163.112L801.884 162.278C801.941 160.654 801.997 158.93 802.035 157.11C802.167 153.797 802.235 150.39 802.235 146.89V123.076C802.235 119.639 802.167 116.326 802.035 113.139C801.997 111.317 801.941 109.593 801.884 107.967L795.109 107.136V104.323H824.213V107.136ZM979.56 119.138C981.69 119.138 983.76 119.357 985.75 119.79C987.79 120.223 989.69 120.936 991.45 121.931L992.07 132.257H989.57L985.28 122.241C985.09 122.176 984.9 122.117 984.71 122.062C983.22 121.586 981.81 121.348 980.47 121.348C978.29 121.348 976.23 122.062 974.28 123.489C972.38 124.875 970.85 127.064 969.69 130.051C968.54 133.038 967.95 136.913 967.95 141.673C967.95 146.391 968.51 150.244 969.62 153.231C970.78 156.174 972.29 158.341 974.14 159.727C976.04 161.112 978.1 161.806 980.33 161.806C981.81 161.805 983.34 161.565 984.92 161.089C985.12 161.02 985.32 160.932 985.53 160.854L989.78 150.441H992.28L991.72 161.22C990.06 162.085 988.16 162.757 986.03 163.233C983.9 163.752 981.69 164.012 979.43 164.012C976.46 164.012 973.63 163.556 970.94 162.647C968.26 161.738 965.87 160.376 963.79 158.558C961.75 156.74 960.13 154.443 958.92 151.672C957.76 148.859 957.18 145.569 957.18 141.804C957.18 137.866 957.81 134.485 959.06 131.671C960.31 128.815 962 126.476 964.13 124.658C966.26 122.797 968.65 121.413 971.29 120.504C973.98 119.595 976.74 119.139 979.56 119.138ZM861.596 120.245C866.135 120.245 869.774 120.72 872.509 121.673C875.241 122.625 877.237 124.013 878.487 125.831C879.738 127.605 880.362 129.748 880.362 132.257C880.362 134.638 879.761 136.828 878.555 138.819C877.399 140.809 875.427 142.41 872.649 143.622C869.913 144.79 866.161 145.376 861.388 145.377H859.65V149.859C859.699 152.195 859.741 154.491 859.786 156.741C859.813 157.99 859.847 159.18 859.888 160.309L865.56 160.961V162.909H844.501V160.961L849.19 160.382C849.228 159.258 849.266 158.065 849.292 156.806C849.387 154.512 849.432 152.152 849.432 149.728V133.233C849.432 130.853 849.41 128.558 849.364 126.351C849.338 125.094 849.3 123.901 849.258 122.779L844.501 122.193V120.245H861.596ZM903.616 122.193L898.708 122.786C898.67 123.906 898.64 125.097 898.613 126.351C898.568 128.558 898.519 130.831 898.473 133.168V149.859C898.519 152.196 898.568 154.513 898.613 156.806C898.64 158.161 898.677 159.439 898.723 160.637H910.059L914.11 149.921H916.683L915.916 162.909H883.32V160.961L888.01 160.382C888.051 159.258 888.093 158.065 888.119 156.806C888.21 154.513 888.256 152.196 888.256 149.859V133.168C888.256 130.831 888.229 128.558 888.184 126.351C888.157 125.094 888.119 123.901 888.082 122.779L883.32 122.193V120.245H903.616V122.193ZM940.41 122.193L935.513 122.786C935.471 123.906 935.437 125.097 935.411 126.351C935.366 128.558 935.32 130.831 935.275 133.168V149.859C935.32 152.196 935.366 154.513 935.411 156.806C935.441 158.161 935.483 159.439 935.524 160.637H946.86L950.91 149.921H953.48L952.72 162.909H920.122V160.961L924.812 160.382C924.853 159.258 924.891 158.065 924.917 156.806C925.008 154.513 925.057 152.196 925.057 149.859V133.168C925.057 130.831 925.034 128.558 924.985 126.351C924.963 125.094 924.925 123.901 924.883 122.779L920.122 122.193V120.245H940.41V122.193ZM859.786 126.351C859.741 128.558 859.699 130.831 859.65 133.168V143.104H861.596C863.588 143.104 865.212 142.648 866.463 141.739C867.759 140.787 868.712 139.509 869.312 137.908C869.962 136.264 870.284 134.4 870.284 132.323C870.284 129.164 869.52 126.739 867.99 125.051C866.463 123.364 864.26 122.518 861.388 122.517H859.903C859.858 123.716 859.816 124.996 859.786 126.351ZM636.256 113.139C636.188 116.326 636.154 119.639 636.154 123.076V133.954H639.767C642.979 133.954 645.488 133.358 647.294 132.171C649.1 130.921 650.374 129.265 651.107 127.203C651.844 125.14 652.21 122.951 652.21 120.638C652.21 116.263 651.209 113.013 649.198 110.888C647.192 108.7 644.218 107.605 640.269 107.605H636.419C636.354 109.336 636.294 111.182 636.256 113.139ZM580.118 7C584.271 7 588.247 7.73543 592.041 9.20663C595.831 10.611 599.198 12.7512 602.13 15.6266C605.138 18.502 607.5 22.1134 609.215 26.4597C610.934 30.8062 611.792 35.8889 611.792 41.7063C611.792 47.4573 610.934 52.5092 609.215 56.8561C607.5 61.2023 605.138 64.8141 602.13 67.6895C599.198 70.5648 595.831 72.7379 592.041 74.2091C590.427 74.8058 588.779 75.2658 587.105 75.609C586.954 78.0995 587.268 80.274 588.065 82.1325C589.067 84.4726 590.605 86.2121 592.679 87.349C594.758 88.5525 597.119 89.1556 599.764 89.1556C600.841 89.1556 602.024 89.0528 603.313 88.8523C604.673 88.7185 605.996 88.4202 607.284 87.9523L608.573 90.559C606.925 92.0966 604.813 93.2334 602.24 93.9689C599.734 94.7046 597.225 95.0722 594.72 95.0722C589.924 95.0722 585.881 94.2044 582.59 92.4655C579.295 90.7938 576.793 88.4184 575.074 85.3425C573.547 82.4891 572.735 79.2045 572.625 75.4882C571.167 75.1595 569.727 74.7341 568.31 74.2091C564.516 72.7379 561.119 70.5648 558.111 67.6895C555.175 64.8138 552.851 61.2355 551.131 56.956C549.416 52.6092 548.558 47.4912 548.558 41.6064C548.558 35.8553 549.416 30.8063 551.131 26.4597C552.851 22.1132 555.175 18.502 558.111 15.6266C561.119 12.751 564.516 10.611 568.31 9.20663C572.104 7.73557 576.041 7.00014 580.118 7ZM507.354 7C511.507 7.00004 515.479 7.73571 519.272 9.20663C523.066 10.6109 526.43 12.7511 529.366 15.6266C532.37 18.502 534.732 22.1133 536.451 26.4597C538.166 30.8062 539.028 35.8889 539.028 41.7063C539.028 47.4573 538.166 52.5092 536.451 56.8561C534.732 61.2023 532.37 64.8141 529.366 67.6895C526.43 70.5644 523.063 72.7382 519.272 74.2091C515.479 75.6132 511.507 76.3158 507.354 76.3158C503.277 76.3158 499.339 75.6132 495.546 74.2091C491.755 72.7382 488.354 70.5644 485.347 67.6895C482.414 64.8141 480.086 61.2355 478.367 56.956C476.652 52.6092 475.79 47.4912 475.79 41.6064C475.79 35.8553 476.652 30.8063 478.367 26.4597C480.086 22.1134 482.414 18.5019 485.347 15.6266C488.354 12.7513 491.755 10.6109 495.546 9.20663C499.339 7.73578 503.277 7 507.354 7ZM865.844 7C869.993 7 873.964 7.73578 877.758 9.20663C881.552 10.6109 884.915 12.7512 887.851 15.6266C890.856 18.5019 893.217 22.1134 894.937 26.4597C896.652 30.8062 897.514 35.8889 897.514 41.7063C897.514 47.4573 896.652 52.5092 894.937 56.8561C893.217 61.202 890.856 64.8141 887.851 67.6895C884.915 70.5644 881.552 72.7382 877.758 74.2091C873.964 75.6132 869.993 76.3158 865.844 76.3158C861.763 76.3158 857.825 75.6132 854.035 74.2091C850.241 72.7382 846.84 70.5644 843.832 67.6895C840.9 64.8141 838.572 61.2355 836.857 56.956C835.137 52.6092 834.276 47.4912 834.276 41.6064C834.276 35.8553 835.137 30.8063 836.857 26.4597C838.572 22.1133 840.9 18.502 843.832 15.6266C846.84 12.7512 850.241 10.6109 854.035 9.20663C857.825 7.73567 861.763 7 865.844 7ZM647.706 11.7098L640.345 12.62C640.284 14.3108 640.228 16.1128 640.19 18.0263C640.118 21.4364 640.08 24.9819 640.08 28.6595V49.2261C640.08 54.0398 640.621 57.8839 641.694 60.7592C642.839 63.6346 644.52 65.7084 646.738 66.9791C648.957 68.1827 651.677 68.7857 654.897 68.7857C658.048 68.7857 660.765 68.1495 663.055 66.8792C665.349 65.6085 667.136 63.5346 668.425 60.659C669.713 57.7172 670.36 53.8728 670.36 49.1259V12.6062L662.201 11.7098V8.69981H682.063V11.7098L674.652 12.5752V47.9191C674.652 54.7402 673.723 60.2261 671.864 64.3724C670.001 68.5177 667.246 71.5597 663.596 73.4991C660.017 75.3714 655.615 76.3091 650.389 76.3091C645.45 76.3087 640.98 75.5398 636.97 74.0022C633.033 72.3975 629.919 69.823 627.629 66.279C625.407 62.735 624.304 57.9842 624.304 52.0326V39.1928C624.304 35.7823 624.262 32.2704 624.19 28.6595C624.19 25.0493 624.156 21.5394 624.085 18.1297C624.085 16.1715 624.058 14.3179 624.013 12.5717L617.105 11.7098V8.69981H647.706V11.7098ZM438.093 8.69981C447.185 8.69981 453.915 10.1706 458.279 13.1131C462.644 15.9886 464.828 20.0005 464.828 25.1495C464.828 28.0251 463.792 30.8012 461.714 33.4761C459.639 36.0841 456.526 38.2244 452.377 39.8961C449.611 41.0097 446.383 41.7564 442.695 42.1578C444.649 42.3443 446.406 42.5928 447.974 42.906C451.05 43.5076 453.518 44.3761 455.381 45.5126C457.24 46.6491 458.744 48.0875 459.889 49.826C461.034 51.4977 462.001 53.5052 462.787 55.846L468.164 70.7477L475.03 71.5922V74.6024C473.814 74.8697 472.631 75.072 471.486 75.2058C470.341 75.4063 469.196 75.5387 468.051 75.6054C466.906 75.7393 465.686 75.8056 464.397 75.8056C460.176 75.8053 456.851 75.103 454.417 73.6989C452.055 72.2948 450.404 69.8894 449.475 66.4792L445.718 54.1393C445 51.9327 444.214 50.0604 443.357 48.5225C442.571 46.9178 441.494 45.7153 440.133 44.9128C438.777 44.1103 437.023 43.706 434.877 43.706H432.402V54.2392C432.402 57.9167 432.444 61.5285 432.515 65.0722C432.553 67.0303 432.606 68.8941 432.67 70.6612L440.243 71.5922V74.6024H409V71.5922L416.248 70.6993C416.312 68.9626 416.365 67.1217 416.406 65.1757C416.55 61.6316 416.626 57.9842 416.626 54.2392V28.7595C416.626 25.0826 416.588 21.5393 416.516 18.1297C416.478 16.1869 416.418 14.3472 416.354 12.6131L409 11.7098V8.69981H438.093ZM932.445 8.69981C941.533 8.69981 948.263 10.1706 952.627 13.1131C956.996 15.9885 959.176 20.0008 959.176 25.1495C959.176 28.025 958.141 30.8013 956.066 33.4761C953.988 36.0841 950.874 38.2244 946.725 39.8961C943.959 41.0097 940.732 41.7564 937.044 42.1578C938.997 42.3443 940.758 42.5928 942.323 42.906C945.398 43.5079 947.866 44.3761 949.729 45.5126C951.588 46.6495 953.092 48.0875 954.237 49.826C955.382 51.4977 956.349 53.5052 957.139 55.846L962.516 70.7477L969.375 71.5922V74.6024C968.158 74.8697 966.975 75.072 965.83 75.2058C964.689 75.4063 963.54 75.5387 962.395 75.6054C961.251 75.7393 960.034 75.8056 958.745 75.8056C954.524 75.8056 951.195 75.1034 948.762 73.6989C946.4 72.2944 944.752 69.8883 943.823 66.4792L940.067 54.1393C939.352 51.9327 938.563 50.0604 937.705 48.5225C936.919 46.9182 935.842 45.7153 934.485 44.9128C933.125 44.1103 931.368 43.706 929.222 43.706H926.754V54.2392C926.754 57.9167 926.788 61.5285 926.86 65.0722C926.901 67.0303 926.954 68.8941 927.019 70.6612L934.591 71.5922V74.6024H903.348V71.5922L910.596 70.6993C910.66 68.963 910.717 67.1217 910.755 65.1757C910.898 61.6316 910.97 57.9842 910.97 54.2392V28.7595C910.97 25.0825 910.936 21.5393 910.864 18.1297C910.823 16.1869 910.766 14.3472 910.705 12.6131L903.348 11.7098V8.69981H932.445ZM737.845 26.2529H733.768L727.771 12.1097H710.759C710.687 13.9903 710.619 15.9978 710.577 18.1297C710.505 21.5394 710.434 25.0493 710.362 28.6595V38.9926H721.385L724.317 29.7628H727.646V51.9327H724.317L721.415 42.7061H710.362V54.2392C710.434 57.9167 710.505 61.5285 710.577 65.0722C710.619 67.2277 710.687 69.2684 710.762 71.1922H729.551L735.593 56.1458H739.674L738.491 74.6024H686.96V71.5957L694.208 70.7028C694.268 68.9651 694.325 67.1232 694.366 65.1757C694.51 61.6316 694.578 57.9842 694.578 54.2392V28.7595C694.578 25.0825 694.544 21.5393 694.472 18.1297C694.431 16.1869 694.374 14.3472 694.313 12.6131L686.96 11.7098V8.69981H736.666L737.845 26.2529ZM787.347 54.9634L804.378 8.69981H828.32V11.7098L821.069 12.5993C821.005 14.3374 820.952 16.1818 820.91 18.1297C820.838 21.5393 820.804 25.0826 820.804 28.7595V54.2392C820.804 57.9842 820.838 61.6316 820.91 65.1757C820.952 67.1203 821.005 68.9605 821.069 70.6958L828.426 71.5957V74.6024H797.508V71.5957L804.646 70.6753C804.711 68.904 804.767 67.0356 804.805 65.0722C804.877 61.5953 804.915 58.0498 804.915 54.4391C804.983 50.7619 805.02 47.2853 805.02 44.0093L805.092 18.5814L784.838 74.6024H778.289L757.74 19.8364L757.888 40.7993V70.5683L766.156 71.5957V74.6024H745.433V71.5957L753.705 70.6026V12.72L745.973 11.7098V8.69981H770.237L787.347 54.9634ZM1024.17 26.2529H1020.09L1014.1 12.1097H997.08C997.01 13.9903 996.95 15.9978 996.9 18.1297C996.83 21.5394 996.76 25.0493 996.69 28.6595V38.9926H1007.71L1010.65 29.7628H1013.98V51.9327H1010.65L1007.74 42.7061H996.69V54.2392C996.76 57.9167 996.83 61.5285 996.9 65.0722C996.95 67.2277 997.02 69.2684 997.09 71.1922H1015.88L1021.92 56.1458H1026L1024.82 74.6024H973.29V71.5957L980.53 70.7028C980.6 68.9651 980.65 67.1232 980.69 65.1757C980.84 61.6316 980.91 57.9842 980.91 54.2392V28.7595C980.91 25.0825 980.87 21.5393 980.8 18.1297C980.76 16.1869 980.7 14.3472 980.64 12.6131L973.29 11.7098V8.69981H1022.99L1024.17 26.2529ZM507.354 10.4099C504.781 10.4099 502.559 11.1787 500.7 12.7166C498.837 14.1876 497.299 16.3282 496.082 19.1365C494.937 21.8783 494.079 25.158 493.505 28.9698C492.934 32.714 492.647 36.9262 492.647 41.6064C492.647 46.2202 492.934 50.4675 493.505 54.3462C494.079 58.1572 494.937 61.4343 496.082 64.1758C497.299 66.9173 498.837 69.0579 500.7 70.5959C502.559 72.0671 504.781 72.8025 507.354 72.8025C510.003 72.8025 512.259 72.0671 514.118 70.5959C515.981 69.1246 517.485 67.0172 518.63 64.2761C519.847 61.4675 520.705 58.1572 521.203 54.3462C521.778 50.5346 522.065 46.2872 522.065 41.6064C522.065 36.9929 521.778 32.7809 521.203 28.9698C520.705 25.158 519.847 21.8783 518.63 19.1365C517.485 16.395 515.981 14.2545 514.118 12.7166C512.259 11.1787 510.003 10.41 507.354 10.4099ZM580.118 10.4099C577.545 10.4102 575.327 11.1796 573.468 12.7166C571.605 14.1877 570.063 16.328 568.846 19.1365C567.701 21.8783 566.844 25.158 566.269 28.9698C565.699 32.714 565.411 36.9262 565.411 41.6064C565.411 46.2202 565.699 50.4675 566.269 54.3462C566.844 58.1572 567.701 61.4343 568.846 64.1758C570.063 66.9177 571.605 69.0576 573.468 70.5959C575.327 72.0667 577.545 72.8021 580.118 72.8025C582.767 72.8025 585.023 72.0671 586.883 70.5959C588.745 69.1246 590.249 67.0176 591.394 64.2761C592.611 61.4675 593.469 58.1572 593.968 54.3462C594.542 50.5342 594.829 46.2872 594.829 41.6064C594.829 36.9929 594.542 32.7809 593.968 28.9698C593.469 25.158 592.611 21.8783 591.394 19.1365C590.249 16.3952 588.745 14.2544 586.883 12.7166C585.023 11.1791 582.767 10.4099 580.118 10.4099ZM865.844 10.4099C863.267 10.4099 861.045 11.1786 859.186 12.7166C857.323 14.1877 855.785 16.3282 854.568 19.1365C853.423 21.8783 852.565 25.158 851.995 28.9698C851.42 32.714 851.133 36.9262 851.133 41.6064C851.133 46.2202 851.42 50.4675 851.995 54.3462C852.565 58.1572 853.423 61.4343 854.568 64.1758C855.785 66.9173 857.323 69.0579 859.186 70.5959C861.045 72.0671 863.267 72.8025 865.844 72.8025C868.489 72.8025 870.745 72.0671 872.608 70.5959C874.467 69.1246 875.971 67.0172 877.116 64.2761C878.333 61.4675 879.19 58.1572 879.693 54.3462C880.264 50.5346 880.551 46.2872 880.551 41.6064C880.551 36.9929 880.264 32.7809 879.693 28.9698C879.19 25.158 878.333 21.8783 877.116 19.1365C875.971 16.395 874.467 14.2545 872.608 12.7166C870.745 11.1787 868.489 10.4099 865.844 10.4099ZM432.515 18.1297C432.444 21.5393 432.402 25.0825 432.402 28.7595V40.3961H436.271C439.706 40.3961 442.389 39.763 444.324 38.4927C446.255 37.1557 447.612 35.3822 448.401 33.1762C449.187 30.9693 449.58 28.6272 449.58 26.1529C449.58 21.4718 448.511 17.9933 446.365 15.7197C444.218 13.3791 441.029 12.2097 436.804 12.2097H432.689C432.617 14.0614 432.557 16.0355 432.515 18.1297ZM926.86 18.1297C926.788 21.5393 926.754 25.0826 926.754 28.7595V40.3961H930.62C934.055 40.3957 936.741 39.763 938.672 38.4927C940.603 37.1557 941.964 35.3822 942.75 33.1762C943.536 30.9693 943.932 28.6272 943.932 26.1529C943.932 21.4718 942.855 17.9933 940.709 15.7197C938.563 13.3799 935.377 12.2097 931.156 12.2097H927.037C926.969 14.0614 926.901 16.0355 926.86 18.1297Z" fill="#162F30"/>
</svg>
