<svg xmlns="http://www.w3.org/2000/svg" viewBox="33.87 12.27 29.41 29.41">
  <path fill="#CD4A16" d="M34.98,24.63c2.42,0,4.83,0,7.28,0c0-3.56,0-7.09,0-10.63c2.11,0,4.18,0,6.29,0c0,0.11,0.01,0.22,0.01,0.33
    c0,1.27,0.04,2.55-0.02,3.82c-0.03,0.56,0.26,0.84,0.66,1c0.97,0.38,1.93,0.83,3.01,0.8c0.1,0,0.19,0.05,0.29,0.08
    c0.19,0.06,0.37,0.11,0.56,0.17c0.19,0.06,0.38,0.13,0.58,0.2c0.11,0.04,0.21,0.11,0.31,0.11c0.19,0,0.27,0.07,0.34,0.24
    c0.08,0.22,0.26,0.24,0.44,0.08c0.02-0.02,0.04-0.04,0.07-0.07c0.45-0.48,0.47-0.49,1.05-0.19c0.26,0.13,0.5,0.19,0.75,0
    c0.07-0.05,0.17-0.07,0.26-0.08c0.43-0.07,0.85-0.15,1.28-0.19c0.15-0.02,0.34,0.01,0.46,0.09c0.49,0.32,1.03,0.5,1.61,0.51
    c0.33,0.01,0.44,0.16,0.46,0.44c0.08,0.85,0.17,1.71,0.24,2.56c0.02,0.19,0.01,0.37,0.02,0.56c0.01,0.2,0.01,0.39,0.24,0.49
    c0.07,0.03,0.15,0.14,0.16,0.22c0.06,0.62,0.49,1.08,0.71,1.62c0.19,0.46,0.24,0.88-0.02,1.3c-0.2,0.32-0.28,0.66-0.23,1.04
    c0.09,0.69-0.19,1.18-0.81,1.49c-0.18,0.09-0.33,0.21-0.52,0.28c-0.63,0.23-1.1,0.66-1.59,1.11c-0.56,0.52-1.27,0.82-2.04,0.88
    c-0.43,0.04-0.71,0.18-0.88,0.6c-0.06,0.16-0.25,0.3-0.42,0.37c-0.28,0.13-0.43,0.33-0.6,0.57c-0.54,0.74-0.79,1.55-0.9,2.46
    c-0.06,0.47-0.13,0.9,0.07,1.35c0.17,0.4,0.32,0.8,0.45,1.22c0.04,0.13,0.01,0.28,0.01,0.49c-0.17-0.07-0.3-0.11-0.4-0.17
    c-0.37-0.23-0.76-0.35-1.2-0.37c-0.16-0.01-0.35-0.03-0.47-0.12c-0.31-0.25-0.67-0.35-1.05-0.43c-0.76-0.16-1.21-0.66-1.43-1.38
    c-0.03-0.1,0-0.23,0.04-0.33c0.18-0.36,0.07-0.66-0.18-0.94c-0.13-0.14-0.29-0.27-0.41-0.42c-0.26-0.33-0.51-0.67-0.77-1
    c-0.15-0.19-0.32-0.38-0.46-0.58c-0.23-0.34-0.51-0.67-0.63-1.05c-0.24-0.73-0.6-1.35-1.17-1.87c-0.21-0.2-0.34-0.48-0.54-0.71
    c-0.08-0.1-0.22-0.18-0.35-0.21c-0.41-0.13-0.83-0.21-1.24-0.35c-0.38-0.12-1.08,0.14-1.27,0.48c-0.15,0.29-0.33,0.57-0.49,0.86
    c-0.09,0.16-0.16,0.33-0.22,0.51c-0.11,0.37-0.2,0.42-0.55,0.26c-0.23-0.1-0.44-0.23-0.67-0.33c-0.37-0.17-0.74-0.31-1.1-0.49
    c-0.63-0.3-1.11-0.74-1.16-1.49c-0.03-0.51-0.14-0.98-0.5-1.36c-0.05-0.06-0.1-0.14-0.11-0.22c-0.05-0.44-0.38-0.61-0.71-0.82
    c-0.35-0.22-0.64-0.54-0.95-0.83c-0.25-0.23-0.49-0.47-0.72-0.72c-0.34-0.38-0.66-0.77-0.98-1.16
    C34.93,24.69,34.95,24.66,34.98,24.63z"/>
</svg>
