<svg width="283" height="51" viewBox="0 0 283 51" fill="none" xmlns="http://www.w3.org/2000/svg">
<path d="M86.2207 0C88.3925 1.61331e-05 90.4189 0.291247 92.2998 0.873047L93.4219 1.2334C95.1332 1.81768 96.6097 2.56462 97.8506 3.47461L97.4961 13.8994H94.6592L91.3574 3.49609C91.2277 3.43876 91.0996 3.38327 90.9717 3.33301C89.648 2.76571 88.1825 2.48243 86.5752 2.48242C85.0152 2.48242 83.6207 2.78976 82.3916 3.4043C81.1625 4.01887 80.1695 4.91676 79.4131 6.09863C78.704 7.23324 78.3496 8.60455 78.3496 10.2119C78.3497 11.6772 78.7041 12.9769 79.4131 14.1113C80.1222 15.1986 81.0673 16.1446 82.249 16.9482C83.4309 17.7519 84.7552 18.5317 86.2207 19.2881L88.6318 20.4941C90.7591 21.5814 92.6741 22.7396 94.376 23.9688C96.0777 25.1979 97.4252 26.6874 98.418 28.4365C99.4579 30.1384 99.9775 32.2897 99.9775 34.8896C99.9775 37.5841 99.3628 39.9948 98.1338 42.1221C96.9519 44.2495 95.1081 45.9281 92.6025 47.1572C90.0971 48.3863 86.8826 49.0009 82.959 49.001C80.5479 49.001 78.1837 48.6697 75.8672 48.0078C73.5507 47.346 71.3996 46.4481 69.4141 45.3135L69.9814 34.3926H72.8184L75.9619 45.1816C76.9944 45.649 78.0499 46.0008 79.1289 46.2354C80.2162 46.4245 81.3984 46.5195 82.6748 46.5195C84.3294 46.5195 85.7949 46.1882 87.0713 45.5264C88.395 44.8645 89.435 43.9186 90.1914 42.6895C90.9477 41.4132 91.3261 39.9243 91.3262 38.2227C91.3262 36.7098 90.9949 35.4326 90.333 34.3926C89.6713 33.3056 88.7499 32.3601 87.5684 31.5566C86.4338 30.7057 85.1335 29.9249 83.668 29.2158L81.3271 28.0107C79.3417 27.018 77.4977 25.9068 75.7959 24.6777C74.0941 23.4014 72.7236 21.8647 71.6836 20.0684C70.6436 18.2719 70.1231 16.0737 70.123 13.4736C70.123 10.8263 70.7617 8.50994 72.0381 6.52441C73.3145 4.49157 75.1583 2.90707 77.5693 1.77246C79.9803 0.590682 82.8643 0 86.2207 0Z" fill="#FFFFFF"/>
<path d="M19.8477 0C26.0487 0 30.6387 1.07427 33.6172 3.22266C36.5956 5.32221 38.085 8.25207 38.085 12.0117C38.0849 14.1112 37.3769 16.1378 35.9609 18.0908C34.545 19.9949 32.4207 21.5567 29.5889 22.7773C27.7094 23.5875 25.5178 24.1377 23.0146 24.4316C24.3355 24.5675 25.526 24.7475 26.5859 24.9746C28.6854 25.414 30.3702 26.0489 31.6396 26.8789C32.9091 27.7089 33.9346 28.7589 34.7158 30.0283C35.497 31.249 36.1563 32.7139 36.6934 34.4229L40.3633 45.3057L45.043 45.9219V48.1191C44.213 48.3144 43.4071 48.4609 42.626 48.5586C41.8448 48.7051 41.0634 48.8027 40.2822 48.8516C39.501 48.9492 38.6708 48.998 37.792 48.998C34.9112 48.998 32.6406 48.4853 30.9805 47.46C29.3692 46.4346 28.2461 44.6767 27.6113 42.1865L25.0479 33.1777C24.5596 31.5665 24.0224 30.1991 23.4365 29.0762C22.8994 27.9045 22.1669 27.0253 21.2393 26.4395C20.3116 25.8537 19.115 25.5605 17.6504 25.5605H15.9658V33.251C15.9658 35.9365 15.9902 38.5733 16.0391 41.1611C16.0666 42.5908 16.1025 43.9508 16.1455 45.2412L21.3125 45.9219V48.1191H0V45.9219L4.94727 45.2705C4.98993 44.0017 5.02637 42.6563 5.05371 41.2344C5.15136 38.6465 5.2002 35.9853 5.2002 33.251V14.6484C5.2002 11.963 5.17578 9.37488 5.12695 6.88477C5.09967 5.46614 5.06303 4.12361 5.02051 2.85742L0 2.19727V0H19.8477ZM16.1553 2.56348C16.1082 3.91534 16.0685 5.35585 16.0391 6.88477C15.9902 9.37488 15.9658 11.963 15.9658 14.6484V23.1436H18.6025C20.9462 23.1436 22.7774 22.6797 24.0957 21.752C25.4139 20.7755 26.3418 19.4821 26.8789 17.8711C27.416 16.2599 27.6845 14.5506 27.6846 12.7441C27.6846 9.32625 26.9521 6.78707 25.4873 5.12695C24.0225 3.41801 21.8495 2.56348 18.9688 2.56348H16.1553Z" fill="#FFFFFF"/>
<path d="M39.3913 23.63C41.8113 23.63 44.2212 23.63 46.6712 23.63C46.6712 20.07 46.6712 16.54 46.6712 13C48.7812 13 50.8513 13 52.9613 13C52.9613 13.11 52.9713 13.22 52.9713 13.33C52.9713 14.6 53.0113 15.88 52.9513 17.15C52.9213 17.71 53.2113 17.99 53.6113 18.15C54.5813 18.53 55.5413 18.98 56.6213 18.95C56.7213 18.95 56.8113 19 56.9113 19.03C57.1013 19.09 57.2813 19.14 57.4713 19.2C57.6613 19.26 57.8513 19.33 58.0513 19.4C58.1613 19.44 58.2613 19.51 58.3613 19.51C58.5513 19.51 58.6313 19.58 58.7013 19.75C58.7813 19.97 58.9613 19.99 59.1413 19.83C59.1613 19.81 59.1813 19.79 59.2113 19.76C59.6613 19.28 59.6812 19.27 60.2612 19.57C60.5212 19.7 60.7612 19.76 61.0112 19.57C61.0812 19.52 61.1813 19.5 61.2713 19.49C61.7013 19.42 62.1213 19.34 62.5513 19.3C62.7013 19.28 62.8912 19.31 63.0112 19.39C63.5012 19.71 64.0413 19.89 64.6213 19.9C64.9513 19.91 65.0612 20.06 65.0812 20.34C65.1612 21.19 65.2513 22.05 65.3213 22.9C65.3413 23.09 65.3313 23.27 65.3413 23.46C65.3513 23.66 65.3512 23.85 65.5812 23.95C65.6512 23.98 65.7313 24.09 65.7413 24.17C65.8013 24.79 66.2313 25.25 66.4513 25.79C66.6413 26.25 66.6913 26.67 66.4313 27.09C66.2313 27.41 66.1513 27.75 66.2013 28.13C66.2913 28.82 66.0113 29.31 65.3913 29.62C65.2113 29.71 65.0613 29.83 64.8713 29.9C64.2413 30.13 63.7713 30.56 63.2812 31.01C62.7212 31.53 62.0113 31.83 61.2413 31.89C60.8113 31.93 60.5313 32.07 60.3613 32.49C60.3013 32.65 60.1112 32.79 59.9412 32.86C59.6612 32.99 59.5113 33.19 59.3413 33.43C58.8013 34.17 58.5512 34.98 58.4412 35.89C58.3812 36.36 58.3112 36.79 58.5112 37.24C58.6812 37.64 58.8313 38.04 58.9613 38.46C59.0013 38.59 58.9713 38.74 58.9713 38.95C58.8013 38.88 58.6713 38.84 58.5713 38.78C58.2013 38.55 57.8113 38.43 57.3713 38.41C57.2113 38.4 57.0213 38.38 56.9013 38.29C56.5913 38.04 56.2312 37.94 55.8512 37.86C55.0912 37.7 54.6412 37.2 54.4212 36.48C54.3912 36.38 54.4213 36.25 54.4613 36.15C54.6413 35.79 54.5312 35.49 54.2812 35.21C54.1513 35.07 53.9913 34.94 53.8713 34.79C53.6113 34.46 53.3612 34.12 53.1012 33.79C52.9512 33.6 52.7813 33.41 52.6413 33.21C52.4113 32.87 52.1312 32.54 52.0112 32.16C51.7712 31.43 51.4113 30.81 50.8413 30.29C50.6313 30.09 50.5013 29.81 50.3013 29.58C50.2213 29.48 50.0813 29.4 49.9513 29.37C49.5413 29.24 49.1213 29.16 48.7113 29.02C48.3313 28.9 47.6312 29.16 47.4412 29.5C47.2912 29.79 47.1113 30.07 46.9513 30.36C46.8613 30.52 46.7913 30.69 46.7313 30.87C46.6213 31.24 46.5313 31.29 46.1813 31.13C45.9513 31.03 45.7412 30.9 45.5112 30.8C45.1412 30.63 44.7713 30.49 44.4113 30.31C43.7813 30.01 43.3013 29.57 43.2513 28.82C43.2213 28.31 43.1113 27.84 42.7513 27.46C42.7013 27.4 42.6513 27.32 42.6413 27.24C42.5913 26.8 42.2613 26.63 41.9313 26.42C41.5813 26.2 41.2913 25.88 40.9813 25.59C40.7313 25.36 40.4912 25.12 40.2612 24.87C39.9212 24.49 39.6012 24.1 39.2812 23.71C39.3412 23.69 39.3613 23.66 39.3913 23.63Z" fill="#CD4A16"/>
<path d="M233.718 43.1924C234.054 43.1924 234.356 43.2367 234.621 43.3252C234.887 43.4137 235.161 43.5823 235.444 43.8301C235.568 44.1664 235.647 44.4766 235.683 44.7598C235.736 45.0428 235.763 45.3524 235.763 45.6885C235.763 46.6445 235.568 47.4774 235.179 48.1855C234.807 48.8936 234.32 49.4773 233.718 49.9375C233.116 50.3977 232.461 50.7522 231.753 51L231.407 50.2031C231.956 49.9199 232.408 49.6454 232.762 49.3799C233.116 49.132 233.409 48.8402 233.639 48.5039C233.8 48.2851 233.946 48.0271 234.085 47.7334L232.975 47.123C232.497 46.8753 232.151 46.5833 231.938 46.2471C231.744 45.893 231.647 45.5473 231.646 45.2109C231.646 44.6446 231.841 44.1668 232.23 43.7773C232.62 43.3879 233.116 43.1924 233.718 43.1924ZM125.708 29.1152C126.575 29.1152 127.381 29.2395 128.125 29.4873C128.886 29.7174 129.532 30.0266 130.063 30.416L129.931 34.3203H128.868L127.632 30.4248C127.583 30.4033 127.535 30.3821 127.487 30.3633C126.992 30.1508 126.443 30.0449 125.841 30.0449C125.257 30.0449 124.734 30.1595 124.273 30.3896C123.813 30.6198 123.441 30.9569 123.158 31.3994C122.893 31.8242 122.76 32.3377 122.76 32.9395C122.76 33.488 122.893 33.9747 123.158 34.3994C123.424 34.8065 123.778 35.161 124.221 35.4619C124.663 35.7629 125.159 36.0556 125.708 36.3389L126.611 36.79C127.408 37.1971 128.125 37.6307 128.762 38.0908C129.399 38.5511 129.904 39.1096 130.275 39.7646C130.665 40.4019 130.859 41.2071 130.859 42.1807C130.859 43.1898 130.629 44.093 130.169 44.8896C129.726 45.6862 129.036 46.3151 128.098 46.7754C127.159 47.2356 125.956 47.4658 124.486 47.4658C123.584 47.4658 122.698 47.3415 121.831 47.0938C120.964 46.8459 120.158 46.5098 119.414 46.085L119.627 41.9951H120.688L121.865 46.0342C122.252 46.2095 122.648 46.3417 123.053 46.4297C123.46 46.5004 123.902 46.5361 124.38 46.5361C124.999 46.5361 125.548 46.4119 126.026 46.1641C126.522 45.9163 126.912 45.5627 127.195 45.1025C127.479 44.6245 127.62 44.066 127.62 43.4287C127.62 42.8624 127.496 42.3845 127.248 41.9951C127 41.588 126.655 41.2336 126.213 40.9326C125.788 40.614 125.301 40.3222 124.752 40.0566L123.876 39.6045C123.132 39.2327 122.441 38.8167 121.804 38.3564C121.167 37.8785 120.653 37.3034 120.264 36.6309C119.874 35.9582 119.68 35.1347 119.68 34.1611C119.68 33.1698 119.919 32.3021 120.396 31.5586C120.874 30.7974 121.565 30.2042 122.468 29.7793C123.371 29.3367 124.451 29.1152 125.708 29.1152ZM197.417 29.1152C198.284 29.1153 199.09 29.2395 199.833 29.4873C200.594 29.7174 201.24 30.0267 201.771 30.416L201.64 34.3203H200.577L199.341 30.4248C199.292 30.4033 199.244 30.3821 199.196 30.3633C198.701 30.1509 198.152 30.045 197.55 30.0449C196.966 30.0449 196.443 30.1595 195.982 30.3896C195.522 30.6198 195.15 30.9569 194.867 31.3994C194.602 31.8242 194.469 32.3377 194.469 32.9395C194.469 33.488 194.602 33.9747 194.867 34.3994C195.133 34.8066 195.487 35.161 195.93 35.4619C196.372 35.7629 196.868 36.0556 197.417 36.3389L198.319 36.79C199.116 37.1972 199.833 37.6306 200.471 38.0908C201.108 38.5511 201.613 39.1096 201.984 39.7646C202.374 40.4019 202.568 41.2072 202.568 42.1807C202.568 43.1898 202.338 44.093 201.878 44.8896C201.435 45.6862 200.745 46.3151 199.807 46.7754C198.868 47.2356 197.665 47.4658 196.195 47.4658C195.292 47.4658 194.407 47.3416 193.539 47.0938C192.672 46.8459 191.866 46.5097 191.123 46.085L191.335 41.9951H192.397L193.574 46.0342C193.961 46.2094 194.356 46.3418 194.761 46.4297C195.168 46.5005 195.611 46.5361 196.089 46.5361C196.708 46.5361 197.257 46.4119 197.735 46.1641C198.231 45.9162 198.621 45.5627 198.904 45.1025C199.188 44.6245 199.329 44.066 199.329 43.4287C199.329 42.8624 199.205 42.3845 198.957 41.9951C198.709 41.5879 198.363 41.2336 197.921 40.9326C197.496 40.6141 197.01 40.3221 196.461 40.0566L195.584 39.6045C194.841 39.2328 194.15 38.8167 193.513 38.3564C192.876 37.8785 192.362 37.3034 191.973 36.6309C191.583 35.9582 191.389 35.1347 191.389 34.1611C191.389 33.1698 191.628 32.3021 192.105 31.5586C192.583 30.7974 193.274 30.2042 194.177 29.7793C195.08 29.3367 196.16 29.1152 197.417 29.1152ZM180.935 29.5654C183.183 29.5654 184.848 29.9554 185.928 30.7344C187.007 31.4956 187.547 32.5579 187.547 33.9209C187.547 34.6821 187.291 35.4169 186.777 36.125C186.264 36.8154 185.494 37.3826 184.467 37.8252C183.783 38.1201 182.984 38.3166 182.071 38.4229C182.555 38.4722 182.99 38.5381 183.378 38.6211C184.139 38.7804 184.75 39.0107 185.21 39.3115C185.67 39.6125 186.043 39.9938 186.326 40.4541C186.609 40.8966 186.848 41.4275 187.043 42.0469L188.373 45.9932L190.07 46.2168V47.0137C189.769 47.0845 189.477 47.1374 189.193 47.1729C188.91 47.2259 188.627 47.2616 188.344 47.2793C188.061 47.3147 187.76 47.332 187.441 47.332C186.397 47.332 185.574 47.1461 184.972 46.7744C184.387 46.4026 183.98 45.7651 183.75 44.8623L182.82 41.5957C182.643 41.0115 182.449 40.5156 182.236 40.1084C182.042 39.6836 181.776 39.3648 181.439 39.1523C181.103 38.9399 180.669 38.834 180.138 38.834H179.527V41.6221C179.527 42.5957 179.536 43.552 179.554 44.4902C179.564 45.0086 179.577 45.5019 179.593 45.9697L181.466 46.2168V47.0137H173.738V46.2168L175.53 45.9805C175.546 45.5204 175.56 45.0322 175.57 44.5166C175.606 43.5784 175.623 42.6133 175.623 41.6221V34.877C175.623 33.9034 175.614 32.9652 175.597 32.0625C175.587 31.548 175.573 31.0608 175.558 30.6016L173.738 30.3623V29.5654H180.935ZM140.055 30.3623L138.234 30.6016C138.219 31.0607 138.206 31.548 138.196 32.0625C138.179 32.9653 138.161 33.8947 138.144 34.8506V39.0977L144.603 30.6953L142.445 30.3623V29.5654H148.075V30.3623L145.873 30.6953L142.077 35.4648L147.4 45.9951L148.951 46.2168V47.0137H141.701V46.2168L143.11 46.0186L139.566 38.6191L138.144 40.4072V41.6494C138.161 42.6229 138.179 43.5699 138.196 44.4902C138.206 45.014 138.22 45.5122 138.235 45.9844L139.922 46.2168V47.0137H132.407V46.2168L134.199 45.9805C134.215 45.5204 134.229 45.0322 134.239 44.5166C134.275 43.5784 134.292 42.6133 134.292 41.6221V34.877C134.292 33.9034 134.283 32.9652 134.266 32.0625C134.256 31.548 134.242 31.0608 134.227 30.6016L132.407 30.3623V29.5654H140.055V30.3623ZM157.585 30.3623L155.765 30.5977C155.749 31.058 155.736 31.5466 155.726 32.0625C155.708 32.9653 155.691 33.8947 155.673 34.8506V41.6221C155.691 42.5957 155.708 43.552 155.726 44.4902C155.736 45.0129 155.749 45.5102 155.765 45.9814L157.585 46.2168V47.0137H149.884V46.2168L151.676 45.9805C151.691 45.5204 151.706 45.0322 151.716 44.5166C151.751 43.5784 151.769 42.6133 151.769 41.6221V34.877C151.769 33.9034 151.751 32.9652 151.716 32.0625C151.706 31.5465 151.691 31.058 151.676 30.5977L149.884 30.3623V29.5654H157.585V30.3623ZM171.76 34.2129H170.75L169.267 30.4688H165.058C165.04 30.9666 165.025 31.4981 165.014 32.0625C164.996 32.9653 164.979 33.8947 164.961 34.8506V37.5859H167.688L168.413 35.1426H169.236V41.0117H168.413L167.694 38.5684H164.961V41.6221C164.979 42.5957 164.996 43.552 165.014 44.4902C165.025 45.0608 165.041 45.601 165.059 46.1104H169.708L171.202 42.127H172.211L171.919 47.0137H159.172V46.2168L160.965 45.9805C160.98 45.5204 160.994 45.0322 161.004 44.5166C161.039 43.5784 161.058 42.6133 161.058 41.6221V34.877C161.058 33.9034 161.048 32.9652 161.03 32.0625C161.02 31.548 161.007 31.0608 160.991 30.6016L159.172 30.3623V29.5654H171.467L171.76 34.2129ZM211.756 30.3623L209.936 30.6016C209.92 31.0607 209.907 31.548 209.897 32.0625C209.88 32.9653 209.861 33.8947 209.844 34.8506V39.0986L216.304 30.6953L214.146 30.3623V29.5654H219.776V30.3623L217.574 30.6953L213.778 35.4648L219.102 45.9951L220.652 46.2168V47.0137H213.402V46.2168L214.812 46.0186L211.268 38.6191L209.844 40.4082V41.6494C209.861 42.6229 209.88 43.5699 209.897 44.4902C209.908 45.014 209.921 45.5122 209.937 45.9844L211.623 46.2168V47.0137H204.108V46.2168L205.9 45.9805C205.916 45.5204 205.931 45.0322 205.94 44.5166C205.976 43.5784 205.993 42.6133 205.993 41.6221V34.877C205.993 33.9034 205.984 32.9652 205.967 32.0625C205.957 31.548 205.943 31.0608 205.928 30.6016L204.108 30.3623V29.5654H211.756V30.3623ZM229.294 30.3623L227.474 30.5977C227.458 31.058 227.444 31.5466 227.435 32.0625C227.417 32.9653 227.4 33.8947 227.382 34.8506V41.6221C227.4 42.5957 227.417 43.552 227.435 44.4902C227.445 45.0129 227.458 45.5102 227.474 45.9814L229.294 46.2168V47.0137H221.592V46.2168L223.385 45.9805C223.4 45.5204 223.415 45.0322 223.425 44.5166C223.46 43.5784 223.478 42.6133 223.478 41.6221V34.877C223.478 33.9034 223.46 32.9652 223.425 32.0625C223.415 31.5465 223.4 31.058 223.385 30.5977L221.592 30.3623V29.5654H229.294V30.3623ZM278.344 33.7617C278.908 33.7617 279.454 33.8237 279.981 33.9463C280.521 34.0689 281.023 34.2709 281.489 34.5527L281.655 37.4775H280.992L279.858 34.6406C279.807 34.622 279.756 34.6053 279.705 34.5898C279.313 34.455 278.939 34.3877 278.583 34.3877C278.007 34.3877 277.461 34.5898 276.946 34.9941C276.444 35.3865 276.039 36.0067 275.732 36.8525C275.426 37.6985 275.272 38.7961 275.272 40.1445C275.272 41.4807 275.42 42.572 275.714 43.418C276.02 44.2517 276.419 44.8654 276.909 45.2578C277.412 45.6502 277.958 45.8467 278.547 45.8467C278.939 45.8466 279.344 45.7784 279.761 45.6436C279.816 45.6241 279.869 45.5992 279.924 45.5771L281.048 42.6279H281.71L281.562 45.6807C281.121 45.9258 280.619 46.1161 280.055 46.251C279.491 46.3981 278.908 46.4716 278.308 46.4717C277.523 46.4717 276.775 46.3425 276.063 46.085C275.352 45.8275 274.721 45.4417 274.169 44.9268C273.629 44.4118 273.201 43.7613 272.882 42.9766C272.575 42.1797 272.422 41.248 272.422 40.1816C272.422 39.066 272.587 38.1085 272.918 37.3115C273.249 36.5025 273.697 35.8401 274.261 35.3252C274.825 34.7981 275.457 34.4059 276.155 34.1484C276.866 33.891 277.596 33.7618 278.344 33.7617ZM247.126 34.0752C248.327 34.0752 249.29 34.2098 250.014 34.4795C250.737 34.7492 251.265 35.1423 251.596 35.6572C251.927 36.1597 252.092 36.7668 252.092 37.4775C252.092 38.1518 251.933 38.772 251.614 39.3359C251.308 39.8998 250.786 40.353 250.051 40.6963C249.327 41.0273 248.334 41.1933 247.071 41.1934H246.611V42.4629C246.624 43.1247 246.635 43.7748 246.647 44.4121C246.654 44.7659 246.663 45.1031 246.674 45.4229L248.175 45.6074V46.1592H242.602V45.6074L243.843 45.4434C243.853 45.1251 243.863 44.7873 243.87 44.4307C243.895 43.7809 243.907 43.1123 243.907 42.4258V37.7539C243.907 37.0798 243.901 36.4298 243.889 35.8047C243.882 35.4486 243.872 35.1108 243.861 34.793L242.602 34.627V34.0752H247.126ZM258.246 34.627L256.947 34.7949C256.937 35.1122 256.929 35.4493 256.922 35.8047C256.91 36.4297 256.897 37.0736 256.885 37.7354V42.4629C256.897 43.1248 256.91 43.781 256.922 44.4307C256.929 44.8144 256.939 45.1763 256.951 45.5156H259.951L261.023 42.4805H261.704L261.501 46.1592H252.875V45.6074L254.116 45.4434C254.127 45.1251 254.138 44.7873 254.145 44.4307C254.169 43.781 254.181 43.1248 254.181 42.4629V37.7354C254.181 37.0736 254.174 36.4297 254.162 35.8047C254.155 35.4486 254.145 35.1108 254.135 34.793L252.875 34.627V34.0752H258.246V34.627ZM267.984 34.627L266.687 34.7949C266.676 35.1122 266.667 35.4493 266.66 35.8047C266.648 36.4297 266.636 37.0736 266.624 37.7354V42.4629C266.636 43.1248 266.648 43.781 266.66 44.4307C266.668 44.8144 266.679 45.1763 266.69 45.5156H269.689L270.762 42.4805H271.442L271.24 46.1592H262.614V45.6074L263.855 45.4434C263.866 45.1251 263.876 44.7873 263.883 44.4307C263.907 43.781 263.92 43.1248 263.92 42.4629V37.7354C263.92 37.0736 263.914 36.4297 263.901 35.8047C263.895 35.4486 263.885 35.1108 263.874 34.793L262.614 34.627V34.0752H267.984V34.627ZM246.647 35.8047C246.635 36.4297 246.624 37.0736 246.611 37.7354V40.5498H247.126C247.653 40.5498 248.083 40.4206 248.414 40.1631C248.757 39.8934 249.009 39.5315 249.168 39.0781C249.34 38.6123 249.425 38.0845 249.425 37.4961C249.425 36.6014 249.223 35.9146 248.818 35.4365C248.414 34.9585 247.831 34.7189 247.071 34.7188H246.678C246.666 35.0582 246.655 35.4208 246.647 35.8047ZM179.554 32.0625C179.536 32.9652 179.527 33.9034 179.527 34.877V37.958H180.483C181.333 37.958 181.997 37.7893 182.475 37.4531C182.953 37.0991 183.29 36.63 183.484 36.0459C183.679 35.4617 183.776 34.8416 183.776 34.1865C183.776 32.9473 183.511 32.0267 182.979 31.4248C182.448 30.8052 181.661 30.4951 180.616 30.4951H179.597C179.58 30.9853 179.564 31.5081 179.554 32.0625ZM164.698 2C165.797 2 166.849 2.2083 167.853 2.625C168.856 3.02276 169.747 3.62895 170.523 4.44336C171.319 5.25778 171.944 6.28067 172.398 7.51172C172.853 8.7428 173.08 10.1824 173.08 11.8301C173.08 13.459 172.853 14.8899 172.398 16.1211C171.944 17.3521 171.319 18.3751 170.523 19.1895C169.747 20.0039 168.856 20.6194 167.853 21.0361C167.426 21.2051 166.99 21.3354 166.547 21.4326C166.507 22.138 166.59 22.7539 166.801 23.2803C167.066 23.9431 167.473 24.4358 168.022 24.7578C168.572 25.0987 169.197 25.2695 169.897 25.2695C170.182 25.2695 170.495 25.2404 170.836 25.1836C171.196 25.1457 171.546 25.0612 171.887 24.9287L172.228 25.667C171.792 26.1025 171.233 26.4245 170.552 26.6328C169.889 26.8412 169.225 26.9453 168.562 26.9453C167.293 26.9453 166.223 26.6995 165.352 26.207C164.48 25.7335 163.818 25.0607 163.363 24.1895C162.959 23.3813 162.744 22.451 162.715 21.3984C162.329 21.3053 161.948 21.1848 161.573 21.0361C160.569 20.6194 159.67 20.0039 158.874 19.1895C158.097 18.375 157.482 17.3615 157.027 16.1494C156.573 14.9182 156.346 13.4686 156.346 11.8018C156.346 10.1729 156.573 8.74282 157.027 7.51172C157.482 6.28062 158.097 5.25779 158.874 4.44336C159.67 3.62889 160.569 3.02276 161.573 2.625C162.577 2.20834 163.619 2.00004 164.698 2ZM145.442 2C146.541 2.00001 147.592 2.20838 148.596 2.625C149.6 3.02275 150.49 3.62893 151.267 4.44336C152.062 5.25778 152.687 6.28065 153.142 7.51172C153.596 8.7428 153.824 10.1824 153.824 11.8301C153.824 13.459 153.596 14.8899 153.142 16.1211C152.687 17.3521 152.062 18.3751 151.267 19.1895C150.49 20.0038 149.599 20.6195 148.596 21.0361C147.592 21.4338 146.541 21.6328 145.442 21.6328C144.363 21.6328 143.321 21.4338 142.317 21.0361C141.314 20.6195 140.414 20.0038 139.618 19.1895C138.842 18.3751 138.226 17.3615 137.771 16.1494C137.317 14.9182 137.089 13.4686 137.089 11.8018C137.089 10.1729 137.317 8.74282 137.771 7.51172C138.226 6.28067 138.842 5.25777 139.618 4.44336C140.414 3.62898 141.314 3.02274 142.317 2.625C143.321 2.2084 144.363 2 145.442 2ZM240.311 2C241.409 2 242.46 2.2084 243.464 2.625C244.468 3.02274 245.358 3.62896 246.135 4.44336C246.93 5.25777 247.555 6.28067 248.01 7.51172C248.464 8.7428 248.692 10.1824 248.692 11.8301C248.692 13.459 248.464 14.8899 248.01 16.1211C247.555 17.352 246.93 18.3751 246.135 19.1895C245.358 20.0038 244.468 20.6195 243.464 21.0361C242.46 21.4338 241.409 21.6328 240.311 21.6328C239.231 21.6328 238.189 21.4338 237.186 21.0361C236.182 20.6195 235.282 20.0038 234.486 19.1895C233.71 18.3751 233.094 17.3615 232.64 16.1494C232.185 14.9182 231.957 13.4686 231.957 11.8018C231.957 10.1729 232.185 8.74282 232.64 7.51172C233.094 6.28065 233.71 5.25778 234.486 4.44336C235.282 3.62895 236.182 3.02274 237.186 2.625C238.189 2.20837 239.231 2 240.311 2ZM182.584 3.33398L180.636 3.5918C180.62 4.07068 180.605 4.58107 180.595 5.12305C180.576 6.08893 180.566 7.09314 180.566 8.13477V13.96C180.566 15.3234 180.709 16.4122 180.993 17.2266C181.296 18.041 181.741 18.6284 182.328 18.9883C182.915 19.3292 183.635 19.5 184.487 19.5C185.321 19.5 186.04 19.3198 186.646 18.96C187.253 18.6001 187.726 18.0127 188.067 17.1982C188.408 16.365 188.579 15.2761 188.579 13.9316V3.58789L186.42 3.33398V2.48145H191.676V3.33398L189.715 3.5791V13.5898C189.715 15.5218 189.469 17.0756 188.977 18.25C188.484 19.4241 187.755 20.2857 186.789 20.835C185.842 21.3653 184.677 21.6309 183.294 21.6309C181.987 21.6308 180.804 21.413 179.743 20.9775C178.701 20.523 177.877 19.7938 177.271 18.79C176.683 17.7862 176.391 16.4406 176.391 14.7549V11.1182C176.391 10.1522 176.38 9.15751 176.361 8.13477C176.361 7.11223 176.352 6.11809 176.333 5.15234C176.333 4.59771 176.326 4.0727 176.314 3.57812L174.486 3.33398V2.48145H182.584V3.33398ZM127.113 2.48145C129.519 2.48145 131.3 2.89804 132.455 3.73145C133.61 4.54589 134.188 5.68223 134.188 7.14062C134.188 7.9551 133.914 8.74138 133.364 9.49902C132.815 10.2377 131.991 10.8439 130.893 11.3174C130.161 11.6328 129.307 11.8443 128.331 11.958C128.848 12.0108 129.313 12.0812 129.728 12.1699C130.542 12.3403 131.195 12.5863 131.688 12.9082C132.18 13.2301 132.578 13.6375 132.881 14.1299C133.184 14.6034 133.44 15.172 133.648 15.835L135.071 20.0557L136.888 20.2949V21.1475C136.566 21.2232 136.253 21.2805 135.95 21.3184C135.647 21.3752 135.344 21.4127 135.041 21.4316C134.738 21.4695 134.415 21.4883 134.074 21.4883C132.957 21.4882 132.077 21.2893 131.433 20.8916C130.808 20.4939 130.371 19.8126 130.125 18.8467L129.131 15.3516C128.941 14.7266 128.733 14.1963 128.506 13.7607C128.298 13.3062 128.013 12.9656 127.653 12.7383C127.294 12.511 126.83 12.3965 126.262 12.3965H125.607V15.3799C125.607 16.4215 125.618 17.4445 125.637 18.4482C125.647 19.0028 125.661 19.5307 125.678 20.0312L127.682 20.2949V21.1475H119.414V20.2949L121.332 20.042C121.349 19.5501 121.363 19.0287 121.374 18.4775C121.412 17.4737 121.432 16.4406 121.432 15.3799V8.16309C121.432 7.12165 121.422 6.11806 121.403 5.15234C121.393 4.60207 121.377 4.081 121.36 3.58984L119.414 3.33398V2.48145H127.113ZM257.936 2.48145C260.341 2.48145 262.122 2.89804 263.277 3.73145C264.433 4.54588 265.01 5.68231 265.01 7.14062C265.01 7.95507 264.736 8.7414 264.187 9.49902C263.637 10.2377 262.813 10.8439 261.715 11.3174C260.983 11.6328 260.129 11.8443 259.153 11.958C259.67 12.0108 260.136 12.0812 260.55 12.1699C261.364 12.3404 262.017 12.5863 262.51 12.9082C263.002 13.2302 263.4 13.6375 263.703 14.1299C264.006 14.6034 264.262 15.172 264.471 15.835L265.894 20.0557L267.709 20.2949V21.1475C267.387 21.2232 267.074 21.2805 266.771 21.3184C266.469 21.3752 266.165 21.4127 265.862 21.4316C265.559 21.4695 265.237 21.4883 264.896 21.4883C263.779 21.4883 262.898 21.2894 262.254 20.8916C261.629 20.4938 261.193 19.8123 260.947 18.8467L259.953 15.3516C259.764 14.7266 259.555 14.1963 259.328 13.7607C259.12 13.3063 258.835 12.9656 258.476 12.7383C258.116 12.511 257.651 12.3965 257.083 12.3965H256.43V15.3799C256.43 16.4215 256.439 17.4445 256.458 18.4482C256.469 19.0028 256.483 19.5307 256.5 20.0312L258.504 20.2949V21.1475H250.236V20.2949L252.154 20.042C252.171 19.5502 252.186 19.0287 252.196 18.4775C252.234 17.4737 252.253 16.4406 252.253 15.3799V8.16309C252.253 7.12164 252.244 6.11807 252.225 5.15234C252.214 4.60207 252.199 4.08099 252.183 3.58984L250.236 3.33398V2.48145H257.936ZM206.438 7.45312H205.359L203.772 3.44727H199.27C199.251 3.97991 199.233 4.5485 199.222 5.15234C199.203 6.11809 199.184 7.11223 199.165 8.13477V11.0615H202.082L202.858 8.44727H203.739V14.7266H202.858L202.09 12.1133H199.165V15.3799C199.184 16.4215 199.203 17.4445 199.222 18.4482C199.233 19.0587 199.251 19.6367 199.271 20.1816H204.243L205.842 15.9199H206.922L206.609 21.1475H192.972V20.2959L194.89 20.043C194.906 19.5508 194.921 19.0291 194.932 18.4775C194.97 17.4737 194.988 16.4406 194.988 15.3799V8.16309C194.988 7.12164 194.979 6.11807 194.96 5.15234C194.949 4.60207 194.934 4.08099 194.918 3.58984L192.972 3.33398V2.48145H206.126L206.438 7.45312ZM219.538 15.585L224.045 2.48145H230.381V3.33398L228.462 3.58594C228.445 4.07823 228.431 4.60062 228.42 5.15234C228.401 6.11806 228.392 7.12165 228.392 8.16309V15.3799C228.392 16.4406 228.401 17.4737 228.42 18.4775C228.431 19.0283 228.445 19.5495 228.462 20.041L230.409 20.2959V21.1475H222.227V20.2959L224.116 20.0352C224.133 19.5335 224.148 19.0043 224.158 18.4482C224.177 17.4634 224.187 16.4592 224.187 15.4365C224.205 14.395 224.215 13.4103 224.215 12.4824L224.234 5.28027L218.874 21.1475H217.141L211.703 5.63574L211.742 11.5732V20.0049L213.93 20.2959V21.1475H208.446V20.2959L210.635 20.0146V3.62012L208.589 3.33398V2.48145H215.01L219.538 15.585ZM282.211 7.45312H281.131L279.545 3.44727H275.042C275.023 3.97991 275.006 4.5485 274.994 5.15234C274.975 6.11809 274.956 7.11223 274.938 8.13477V11.0615H277.854L278.631 8.44727H279.512V14.7266H278.631L277.862 12.1133H274.938V15.3799C274.956 16.4215 274.975 17.4445 274.994 18.4482C275.006 19.0587 275.024 19.6367 275.043 20.1816H280.016L281.614 15.9199H282.694L282.382 21.1475H268.744V20.2959L270.662 20.043C270.679 19.5508 270.693 19.0291 270.704 18.4775C270.742 17.4737 270.761 16.4406 270.761 15.3799V8.16309C270.761 7.12164 270.751 6.11807 270.732 5.15234C270.722 4.60207 270.707 4.08099 270.69 3.58984L268.744 3.33398V2.48145H281.898L282.211 7.45312ZM145.442 2.96582C144.761 2.96582 144.173 3.18357 143.681 3.61914C143.188 4.0358 142.781 4.6421 142.459 5.4375C142.156 6.21409 141.929 7.14301 141.777 8.22266C141.626 9.28317 141.55 10.4762 141.55 11.8018C141.55 13.1086 141.626 14.3116 141.777 15.4102C141.929 16.4896 142.156 17.4178 142.459 18.1943C142.781 18.9708 143.188 19.5771 143.681 20.0127C144.173 20.4294 144.761 20.6377 145.442 20.6377C146.143 20.6377 146.74 20.4294 147.232 20.0127C147.725 19.596 148.123 18.9991 148.426 18.2227C148.748 17.4272 148.975 16.4896 149.107 15.4102C149.259 14.3306 149.335 13.1276 149.335 11.8018C149.335 10.4951 149.259 9.3021 149.107 8.22266C148.975 7.14301 148.748 6.21409 148.426 5.4375C148.123 4.66101 147.725 4.05475 147.232 3.61914C146.74 3.18355 146.143 2.96584 145.442 2.96582ZM164.698 2.96582C164.017 2.96589 163.43 3.18382 162.938 3.61914C162.445 4.03583 162.037 4.64203 161.715 5.4375C161.412 6.21409 161.185 7.14301 161.033 8.22266C160.882 9.28316 160.806 10.4762 160.806 11.8018C160.806 13.1086 160.882 14.3116 161.033 15.4102C161.185 16.4896 161.412 17.4178 161.715 18.1943C162.037 18.9709 162.445 19.577 162.938 20.0127C163.43 20.4293 164.017 20.6376 164.698 20.6377C165.399 20.6377 165.996 20.4294 166.488 20.0127C166.981 19.596 167.379 18.9992 167.682 18.2227C168.004 17.4272 168.231 16.4896 168.363 15.4102C168.515 14.3305 168.591 13.1276 168.591 11.8018C168.591 10.4951 168.515 9.30211 168.363 8.22266C168.231 7.14301 168.004 6.21409 167.682 5.4375C167.379 4.66107 166.981 4.05472 166.488 3.61914C165.996 3.18367 165.399 2.96582 164.698 2.96582ZM240.311 2.96582C239.629 2.96582 239.041 3.18353 238.549 3.61914C238.056 4.03581 237.649 4.64208 237.327 5.4375C237.024 6.21409 236.797 7.14301 236.646 8.22266C236.494 9.28317 236.418 10.4762 236.418 11.8018C236.418 13.1086 236.494 14.3116 236.646 15.4102C236.797 16.4896 237.024 17.4178 237.327 18.1943C237.649 18.9708 238.056 19.5771 238.549 20.0127C239.041 20.4294 239.629 20.6377 240.311 20.6377C241.011 20.6377 241.608 20.4294 242.101 20.0127C242.593 19.596 242.991 18.9991 243.294 18.2227C243.616 17.4272 243.843 16.4896 243.976 15.4102C244.127 14.3306 244.203 13.1276 244.203 11.8018C244.203 10.4951 244.127 9.3021 243.976 8.22266C243.843 7.14301 243.616 6.21409 243.294 5.4375C242.991 4.66102 242.593 4.05474 242.101 3.61914C241.608 3.18356 241.011 2.96582 240.311 2.96582ZM125.637 5.15234C125.618 6.11807 125.607 7.12164 125.607 8.16309V11.459H126.631C127.54 11.459 128.25 11.2797 128.762 10.9199C129.273 10.5412 129.632 10.0389 129.841 9.41406C130.049 8.789 130.153 8.12563 130.153 7.4248C130.153 6.09896 129.87 5.11372 129.302 4.46973C128.734 3.80679 127.89 3.47559 126.772 3.47559H125.683C125.664 4.00004 125.648 4.5592 125.637 5.15234ZM256.458 5.15234C256.439 6.11806 256.43 7.12165 256.43 8.16309V11.459H257.453C258.362 11.4589 259.073 11.2797 259.584 10.9199C260.095 10.5412 260.455 10.0389 260.663 9.41406C260.871 8.789 260.976 8.12563 260.976 7.4248C260.976 6.09895 260.691 5.11372 260.123 4.46973C259.555 3.80702 258.712 3.47559 257.595 3.47559H256.505C256.487 4.00004 256.469 4.55919 256.458 5.15234Z" fill="#FFFFFF"/>
</svg>
