<?xml version="1.0" encoding="utf-8"?>
<!-- Generator: Adobe Illustrator 26.2.1, SVG Export Plug-In . SVG Version: 6.00 Build 0)  -->
<svg version="1.1" id="Layer_1" xmlns="http://www.w3.org/2000/svg" xmlns:xlink="http://www.w3.org/1999/xlink" x="0px" y="0px"
	 viewBox="0 0 299.28 48.18" style="enable-background:new 0 0 299.28 48.18;" xml:space="preserve">
<style type="text/css">
	.st0{fill:#FFFFFF;}
	.st1{fill:#CD4A16;}
</style>
<g>
	<g>
		<g>
			<path class="st0" d="M86.58,46.4c-5.2,0-9.37-1.34-12.51-4.03c-3.14-2.69-4.8-6.22-4.97-10.6h10.27
				c0.39,3.99,2.73,5.98,7.02,5.98c2.04,0,3.64-0.41,4.81-1.24c1.17-0.82,1.75-2.01,1.75-3.58c0-1.43-0.53-2.51-1.59-3.25
				c-1.06-0.74-2.74-1.36-5.04-1.88l-4.29-0.97c-8.15-1.86-12.22-6.15-12.22-12.87c0-4.07,1.48-7.38,4.45-9.91
				c2.97-2.54,6.77-3.8,11.41-3.8c4.85,0,8.85,1.34,11.99,4.03c3.14,2.69,4.76,6.09,4.84,10.21H92.3c-0.17-1.65-0.81-2.99-1.92-4.03
				S87.73,8.9,85.74,8.9c-1.82,0-3.23,0.43-4.23,1.3c-1,0.87-1.5,1.99-1.5,3.38c0,2.6,2.17,4.35,6.5,5.26l4.23,0.91
				c8.23,1.82,12.35,6.07,12.35,12.74c0,4.29-1.51,7.68-4.52,10.17C95.56,45.16,91.56,46.4,86.58,46.4z"/>
		</g>
	</g>
	<g>
		<g>
			<path class="st0" d="M10.21,45.75H0V0.9h18.98c4.25,0,7.8,1.46,10.66,4.39s4.29,6.55,4.29,10.89c0,3.03-0.71,5.73-2.11,8.09
				c-1.41,2.36-3.3,4.15-5.69,5.36l8.97,16.12H23.85l-7.86-14.37h-5.79V45.75z M10.21,10.33v11.63h7.41c1.86,0,3.36-0.53,4.48-1.59
				c1.13-1.06,1.69-2.46,1.69-4.19c0-1.78-0.56-3.2-1.69-4.26c-1.13-1.06-2.62-1.59-4.48-1.59H10.21z"/>
		</g>
	</g>
	<g>
		<g>
			<path class="st0" d="M128.4,20.16h-4.52V0.29h8.41c1.88,0,3.46,0.65,4.72,1.94c1.27,1.3,1.9,2.9,1.9,4.82
				c0,1.34-0.31,2.54-0.94,3.58c-0.62,1.05-1.46,1.84-2.52,2.38l3.97,7.14h-4.98l-3.48-6.36h-2.56V20.16z M128.4,4.46v5.15h3.28
				c0.83,0,1.49-0.23,1.99-0.71c0.5-0.47,0.75-1.09,0.75-1.86c0-0.79-0.25-1.42-0.75-1.89c-0.5-0.47-1.16-0.71-1.99-0.71H128.4z"/>
			<path class="st0" d="M158,17.51c-1.98,1.96-4.43,2.94-7.34,2.94c-2.92,0-5.37-0.98-7.34-2.94c-1.98-1.96-2.97-4.39-2.97-7.28
				s0.99-5.33,2.97-7.29c1.98-1.96,4.42-2.94,7.34-2.94c2.92,0,5.37,0.98,7.34,2.94c1.98,1.96,2.96,4.39,2.96,7.29
				S159.98,15.55,158,17.51z M146.5,14.5c1.1,1.12,2.49,1.68,4.16,1.68c1.67,0,3.05-0.56,4.15-1.68c1.1-1.12,1.64-2.55,1.64-4.28
				s-0.55-3.15-1.64-4.28c-1.09-1.12-2.47-1.68-4.15-1.68c-1.67,0-3.06,0.56-4.16,1.68c-1.1,1.12-1.66,2.55-1.66,4.28
				S145.39,13.38,146.5,14.5z"/>
			<path class="st0" d="M172.86,20.44c-2.92,0-5.37-0.98-7.34-2.94c-1.98-1.96-2.97-4.39-2.97-7.28s0.99-5.33,2.97-7.29
				c1.98-1.96,4.42-2.94,7.34-2.94s5.37,0.98,7.34,2.94c1.98,1.96,2.97,4.39,2.97,7.29c0,2.5-0.76,4.66-2.27,6.51l3.31,3.43h-5.15
				l-1.01-1.04C176.47,20,174.74,20.44,172.86,20.44z M172.86,16.18c0.73,0,1.41-0.12,2.04-0.35l-4.38-4.58h5.12l2.13,2.22
				c0.58-0.98,0.86-2.06,0.86-3.25c0-1.73-0.55-3.15-1.64-4.28c-1.09-1.12-2.48-1.68-4.15-1.68c-1.67,0-3.06,0.56-4.16,1.68
				c-1.1,1.12-1.66,2.55-1.66,4.28s0.55,3.15,1.66,4.28C169.8,15.62,171.19,16.18,172.86,16.18z"/>
			<path class="st0" d="M194.05,20.44c-2.71,0-4.89-0.84-6.54-2.52c-1.65-1.68-2.48-3.9-2.48-6.67V0.29h4.49v10.74
				c0,1.59,0.41,2.85,1.22,3.76c0.82,0.91,1.92,1.37,3.3,1.37s2.47-0.45,3.25-1.35s1.18-2.16,1.18-3.77V0.29h4.52v10.97
				c0,2.78-0.82,5.01-2.46,6.68S196.74,20.44,194.05,20.44z"/>
			<path class="st0" d="M218.58,20.16H205.8V0.29h12.61v4.03h-8.09v3.86h7.34v3.95h-7.34v4h8.26V20.16z"/>
			<path class="st0" d="M225.32,20.16h-4.29V0.29h5.3l5.79,11.29l5.76-11.29H243v19.87h-4.29V7.86l-5.04,9.85h-3.28l-5.07-9.85
				V20.16z"/>
			<path class="st0" d="M262.64,17.51c-1.98,1.96-4.42,2.94-7.34,2.94s-5.37-0.98-7.34-2.94c-1.98-1.96-2.97-4.39-2.97-7.28
				s0.99-5.33,2.97-7.29c1.98-1.96,4.42-2.94,7.34-2.94s5.37,0.98,7.34,2.94c1.98,1.96,2.97,4.39,2.97,7.29
				S264.61,15.55,262.64,17.51z M251.13,14.5c1.1,1.12,2.49,1.68,4.16,1.68c1.67,0,3.05-0.56,4.15-1.68
				c1.09-1.12,1.64-2.55,1.64-4.28s-0.55-3.15-1.64-4.28c-1.09-1.12-2.48-1.68-4.15-1.68c-1.67,0-3.06,0.56-4.16,1.68
				c-1.1,1.12-1.66,2.55-1.66,4.28S250.03,13.38,251.13,14.5z"/>
			<path class="st0" d="M272.08,20.16h-4.52V0.29h8.41c1.88,0,3.46,0.65,4.72,1.94c1.27,1.3,1.9,2.9,1.9,4.82
				c0,1.34-0.31,2.54-0.94,3.58c-0.62,1.05-1.46,1.84-2.52,2.38l3.97,7.14h-4.98l-3.48-6.36h-2.56V20.16z M272.08,4.46v5.15h3.28
				c0.83,0,1.49-0.23,1.99-0.71c0.5-0.47,0.75-1.09,0.75-1.86c0-0.79-0.25-1.42-0.75-1.89c-0.5-0.47-1.16-0.71-1.99-0.71H272.08z"/>
			<path class="st0" d="M297.71,20.16h-12.78V0.29h12.61v4.03h-8.09v3.86h7.34v3.95h-7.34v4h8.26V20.16z"/>
		</g>
	</g>
	<g>
		<g>
			<path class="st0" d="M130.9,45.45c-2.2,0-3.97-0.57-5.3-1.71c-1.33-1.14-2.03-2.63-2.11-4.49h4.35c0.17,1.69,1.16,2.53,2.97,2.53
				c0.86,0,1.54-0.17,2.04-0.52c0.5-0.35,0.74-0.85,0.74-1.51c0-0.61-0.22-1.06-0.67-1.38s-1.16-0.58-2.13-0.8l-1.82-0.41
				c-3.45-0.79-5.18-2.61-5.18-5.45c0-1.73,0.63-3.13,1.89-4.2c1.26-1.07,2.87-1.61,4.83-1.61c2.06,0,3.75,0.57,5.08,1.71
				s2.02,2.58,2.05,4.33h-4.33c-0.07-0.7-0.34-1.27-0.81-1.71c-0.47-0.44-1.12-0.66-1.97-0.66c-0.77,0-1.37,0.18-1.79,0.55
				c-0.42,0.37-0.63,0.84-0.63,1.43c0,1.1,0.92,1.85,2.75,2.23l1.79,0.39c3.49,0.77,5.23,2.57,5.23,5.4c0,1.82-0.64,3.25-1.92,4.31
				C134.7,44.92,133.01,45.45,130.9,45.45z"/>
			<path class="st0" d="M144.42,45.17h-4.33V26.17h4.33v8.62l6.94-8.62h5.04l-6.64,8.21l7,10.8h-4.96l-4.85-7.38l-2.53,3.11V45.17z"
				/>
			<path class="st0" d="M162.47,45.17h-4.32V26.17h4.32V45.17z"/>
			<path class="st0" d="M177.51,45.17h-12.23V26.17h12.07v3.86h-7.74v3.69h7.02v3.77h-7.02v3.83h7.91V45.17z"/>
			<path class="st0" d="M184.17,45.17h-4.32V26.17h8.04c1.8,0,3.31,0.62,4.52,1.86c1.21,1.24,1.82,2.78,1.82,4.61
				c0,1.29-0.3,2.43-0.89,3.43c-0.6,1-1.4,1.76-2.41,2.27l3.8,6.83h-4.77l-3.33-6.09h-2.45V45.17z M184.17,30.16v4.93h3.14
				c0.79,0,1.42-0.22,1.9-0.67s0.72-1.04,0.72-1.78c0-0.75-0.24-1.35-0.72-1.8s-1.11-0.68-1.9-0.68H184.17z"/>
			<path class="st0" d="M202.96,45.45c-2.2,0-3.97-0.57-5.3-1.71c-1.33-1.14-2.03-2.63-2.11-4.49h4.35
				c0.17,1.69,1.16,2.53,2.98,2.53c0.86,0,1.54-0.17,2.04-0.52c0.5-0.35,0.74-0.85,0.74-1.51c0-0.61-0.23-1.06-0.67-1.38
				c-0.45-0.31-1.16-0.58-2.13-0.8l-1.82-0.41c-3.45-0.79-5.18-2.61-5.18-5.45c0-1.73,0.63-3.13,1.89-4.2
				c1.26-1.07,2.87-1.61,4.83-1.61c2.06,0,3.75,0.57,5.08,1.71c1.33,1.14,2.02,2.58,2.05,4.33h-4.32c-0.07-0.7-0.34-1.27-0.81-1.71
				c-0.47-0.44-1.13-0.66-1.97-0.66c-0.77,0-1.37,0.18-1.79,0.55s-0.63,0.84-0.63,1.43c0,1.1,0.92,1.85,2.75,2.23l1.79,0.39
				c3.49,0.77,5.23,2.57,5.23,5.4c0,1.82-0.64,3.25-1.91,4.31C206.77,44.92,205.07,45.45,202.96,45.45z"/>
			<path class="st0" d="M216.48,45.17h-4.32V26.17h4.32v8.62l6.94-8.62h5.04l-6.64,8.21l7,10.8h-4.96l-4.85-7.38l-2.53,3.11V45.17z"
				/>
			<path class="st0" d="M234.53,45.17h-4.32V26.17h4.32V45.17z"/>
			<path class="st0" d="M239.76,48.18h-2.15l1.05-2.89c-0.59-0.07-1.07-0.32-1.45-0.73c-0.38-0.41-0.57-0.93-0.57-1.56
				c0-0.66,0.22-1.22,0.68-1.67c0.45-0.45,1.01-0.67,1.69-0.67s1.25,0.22,1.71,0.66s0.69,1,0.69,1.68
				C241.41,43.95,240.86,45.68,239.76,48.18z"/>
		</g>
	</g>
	<path class="st1" d="M37.54,21.54c2.42,0,4.83,0,7.28,0c0-3.56,0-7.09,0-10.63c2.11,0,4.18,0,6.29,0c0,0.11,0.01,0.22,0.01,0.33
		c0,1.27,0.04,2.55-0.02,3.82c-0.03,0.56,0.26,0.84,0.66,1c0.97,0.38,1.93,0.83,3.01,0.8c0.1,0,0.19,0.05,0.29,0.08
		c0.19,0.06,0.37,0.11,0.56,0.17c0.19,0.06,0.38,0.13,0.58,0.2c0.11,0.04,0.21,0.11,0.31,0.11c0.19,0,0.27,0.07,0.34,0.24
		c0.08,0.22,0.26,0.24,0.44,0.08c0.02-0.02,0.04-0.04,0.07-0.07c0.45-0.48,0.47-0.49,1.05-0.19c0.26,0.13,0.5,0.19,0.75,0
		c0.07-0.05,0.17-0.07,0.26-0.08c0.43-0.07,0.85-0.15,1.28-0.19c0.15-0.02,0.34,0.01,0.46,0.09c0.49,0.32,1.03,0.5,1.61,0.51
		c0.33,0.01,0.44,0.16,0.46,0.44c0.08,0.85,0.17,1.71,0.24,2.56c0.02,0.19,0.01,0.37,0.02,0.56c0.01,0.2,0.01,0.39,0.24,0.49
		c0.07,0.03,0.15,0.14,0.16,0.22c0.06,0.62,0.49,1.08,0.71,1.62c0.19,0.46,0.24,0.88-0.02,1.3c-0.2,0.32-0.28,0.66-0.23,1.04
		c0.09,0.69-0.19,1.18-0.81,1.49c-0.18,0.09-0.33,0.21-0.52,0.28c-0.63,0.23-1.1,0.66-1.59,1.11c-0.56,0.52-1.27,0.82-2.04,0.88
		c-0.43,0.04-0.71,0.18-0.88,0.6c-0.06,0.16-0.25,0.3-0.42,0.37c-0.28,0.13-0.43,0.33-0.6,0.57c-0.54,0.74-0.79,1.55-0.9,2.46
		c-0.06,0.47-0.13,0.9,0.07,1.35c0.17,0.4,0.32,0.8,0.45,1.22c0.04,0.13,0.01,0.28,0.01,0.49c-0.17-0.07-0.3-0.11-0.4-0.17
		c-0.37-0.23-0.76-0.35-1.2-0.37c-0.16-0.01-0.35-0.03-0.47-0.12c-0.31-0.25-0.67-0.35-1.05-0.43c-0.76-0.16-1.21-0.66-1.43-1.38
		c-0.03-0.1,0-0.23,0.04-0.33c0.18-0.36,0.07-0.66-0.18-0.94c-0.13-0.14-0.29-0.27-0.41-0.42c-0.26-0.33-0.51-0.67-0.77-1
		c-0.15-0.19-0.32-0.38-0.46-0.58c-0.23-0.34-0.51-0.67-0.63-1.05c-0.24-0.73-0.6-1.35-1.17-1.87c-0.21-0.2-0.34-0.48-0.54-0.71
		c-0.08-0.1-0.22-0.18-0.35-0.21c-0.41-0.13-0.83-0.21-1.24-0.35c-0.38-0.12-1.08,0.14-1.27,0.48c-0.15,0.29-0.33,0.57-0.49,0.86
		c-0.09,0.16-0.16,0.33-0.22,0.51c-0.11,0.37-0.2,0.42-0.55,0.26c-0.23-0.1-0.44-0.23-0.67-0.33c-0.37-0.17-0.74-0.31-1.1-0.49
		c-0.63-0.3-1.11-0.74-1.16-1.49c-0.03-0.51-0.14-0.98-0.5-1.36c-0.05-0.06-0.1-0.14-0.11-0.22c-0.05-0.44-0.38-0.61-0.71-0.82
		c-0.35-0.22-0.64-0.54-0.95-0.83c-0.25-0.23-0.49-0.47-0.72-0.72c-0.34-0.38-0.66-0.77-0.98-1.16
		C37.49,21.61,37.52,21.58,37.54,21.54z"/>
	<g>
		<g>
			<path class="st0" d="M257.48,45.27h-3.23V31.09h5.55c1.46,0,2.66,0.48,3.58,1.44c0.92,0.96,1.39,2.14,1.39,3.53
				c0,1.45-0.46,2.64-1.39,3.57c-0.92,0.93-2.12,1.4-3.58,1.4h-2.32V45.27z M257.48,34.13V38h2.14c0.59,0,1.06-0.18,1.42-0.53
				c0.36-0.36,0.53-0.82,0.53-1.4c0-0.59-0.18-1.06-0.53-1.41c-0.36-0.35-0.83-0.52-1.42-0.52H257.48z"/>
			<path class="st0" d="M274.8,45.27h-8.63V31.09h3.23v11.13h5.4V45.27z"/>
			<path class="st0" d="M284.74,45.27h-8.63V31.09h3.23v11.13h5.4V45.27z"/>
			<path class="st0" d="M292.18,45.47c-2.05,0-3.78-0.7-5.19-2.09c-1.4-1.4-2.11-3.13-2.11-5.2c0-2.07,0.7-3.8,2.11-5.2
				c1.4-1.4,3.13-2.09,5.19-2.09c1.78,0,3.33,0.55,4.64,1.65c1.31,1.1,2.13,2.53,2.44,4.28H296c-0.27-0.89-0.75-1.59-1.44-2.12
				c-0.69-0.52-1.48-0.78-2.38-0.78c-1.18,0-2.15,0.4-2.93,1.2c-0.77,0.8-1.16,1.82-1.16,3.05c0,1.23,0.39,2.25,1.16,3.05
				c0.77,0.8,1.75,1.2,2.93,1.2c0.92,0,1.72-0.26,2.41-0.78s1.17-1.23,1.43-2.14h3.27c-0.32,1.75-1.13,3.18-2.46,4.29
				S293.96,45.47,292.18,45.47z"/>
		</g>
	</g>
</g>
</svg>
